<svg width="328pt" height="164pt" viewBox="0.00 0.00 328.00 164.00" xmlns="http://www.w3.org/2000/svg" xmlns:xlink="http://www.w3.org/1999/xlink">
<g id="graph0" class="graph" transform="scale(1 1) rotate(0) translate(4 160)">
<title>hom_graph</title>
<polygon fill="white" stroke="none" points="-4,4 -4,-160 324,-160 324,4 -4,4"></polygon>
<g id="clust1" class="cluster">
<title>cluster_dom</title>
<polygon fill="none" stroke="black" points="8,-106 8,-148 215.5,-148 215.5,-106 8,-106"></polygon>
</g>
<g id="clust2" class="cluster">
<title>cluster_cod</title>
<polygon fill="none" stroke="black" points="144.5,-8 144.5,-50 312,-50 312,-8 144.5,-8"></polygon>
</g>
<!-- domn1 -->
<!-- junction -->
<g id="n1" class="node">
<title>domn1</title>
<ellipse fill="black" stroke="black" cx="18" cy="-121" rx="2" ry="2"></ellipse>
</g>
<!-- domn4 -->
<!-- f -->
<g id="n4" class="node">
<title>domn4</title>
<polygon fill="none" stroke="black" points="56.5,-114 56.5,-139 71.5,-139 71.5,-114 56.5,-114"></polygon>
<text text-anchor="start" x="61.5" y="-122.8" font-family="Serif" font-size="14.00">f</text>
</g>
<!-- domn1&#45;&gt;domn4 -->
<g id="e1" class="edge">
<title>domn1-&gt;domn4:w</title>
<path fill="none" stroke="black" d="M20.14,-121.27C24.13,-122.19 37.91,-125.17 50.9,-125.86"></path>
<polygon fill="black" stroke="black" points="50.95,-127.61 56,-126 51.05,-124.11 50.95,-127.61"></polygon>
</g>
<!-- codomn1 -->
<!-- junction -->
<g id="n1" class="node">
<title>codomn1</title>
<ellipse fill="black" stroke="black" cx="154.5" cy="-18" rx="2" ry="2"></ellipse>
</g>
<!-- domn1&#45;&gt;codomn1 -->
<g id="edge9" class="edge">
<title>domn1-&gt;codomn1</title>
<path fill="none" stroke="blue" d="M20.51,-119.84C33.39,-109.98 124.84,-39.94 148.12,-22.12"></path>
<polygon fill="blue" stroke="blue" points="149.26,-23.45 152.17,-19.02 147.14,-20.67 149.26,-23.45"></polygon>
</g>
<!-- domn2 -->
<!-- junction -->
<g id="n2" class="node">
<title>domn2</title>
<ellipse fill="black" stroke="black" cx="109" cy="-126" rx="2" ry="2"></ellipse>
</g>
<!-- domn5 -->
<!-- f -->
<g id="n5" class="node">
<title>domn5</title>
<polygon fill="none" stroke="black" points="147.5,-114 147.5,-139 162.5,-139 162.5,-114 147.5,-114"></polygon>
<text text-anchor="start" x="152.5" y="-122.8" font-family="Serif" font-size="14.00">f</text>
</g>
<!-- domn2&#45;&gt;domn5 -->
<g id="e3" class="edge">
<title>domn2-&gt;domn5:w</title>
<path fill="none" stroke="black" d="M111.14,-126C115.06,-126 128.52,-126 141.16,-126"></path>
<polygon fill="black" stroke="black" points="141.5,-127.75 146.5,-126 141.5,-124.25 141.5,-127.75"></polygon>
</g>
<!-- codomn2 -->
<!-- junction -->
<g id="n2" class="node">
<title>codomn2</title>
<ellipse fill="black" stroke="black" cx="251" cy="-28" rx="2" ry="2"></ellipse>
</g>
<!-- domn2&#45;&gt;codomn2 -->
<g id="edge10" class="edge">
<title>domn2-&gt;codomn2</title>
<path fill="none" stroke="blue" d="M111.57,-124.9C124.98,-115.52 220.17,-48.88 244.4,-31.92"></path>
<polygon fill="blue" stroke="blue" points="245.52,-33.27 248.61,-28.97 243.51,-30.4 245.52,-33.27"></polygon>
</g>
<!-- domn3 -->
<!-- junction -->
<g id="n3" class="node">
<title>domn3</title>
<ellipse fill="black" stroke="black" cx="205.5" cy="-116" rx="2" ry="2"></ellipse>
</g>
<!-- domn3&#45;&gt;codomn2 -->
<g id="edge11" class="edge">
<title>domn3-&gt;codomn2</title>
<path fill="none" stroke="blue" d="M207.38,-114.52C209.03,-111.71 212.68,-105.43 215.5,-100 228.03,-75.91 241.59,-46.52 247.26,-34.05"></path>
<polygon fill="blue" stroke="blue" points="248.91,-34.67 249.38,-29.39 245.72,-33.22 248.91,-34.67"></polygon>
</g>
<!-- domn4&#45;&gt;domn2 -->
<g id="e2" class="edge">
<title>domn4:e-&gt;domn2</title>
<path fill="none" stroke="black" d="M71,-126C81.82,-126 94.42,-126 101.77,-126"></path>
<polygon fill="black" stroke="black" points="101.85,-127.75 106.85,-126 101.85,-124.25 101.85,-127.75"></polygon>
</g>
<!-- codomn3 -->
<!-- f -->
<g id="n3" class="node">
<title>codomn3</title>
<polygon fill="none" stroke="black" points="198.5,-16 198.5,-41 213.5,-41 213.5,-16 198.5,-16"></polygon>
<text text-anchor="start" x="203.5" y="-24.8" font-family="Serif" font-size="14.00">f</text>
</g>
<!-- domn4&#45;&gt;codomn3 -->
<g id="edge12" class="edge">
<title>domn4-&gt;codomn3</title>
<path fill="none" stroke="red" d="M71.25,-122.27C93.66,-106.59 165.71,-56.15 193.46,-36.73"></path>
<polygon fill="red" stroke="red" points="194.72,-37.98 197.82,-33.68 192.72,-35.11 194.72,-37.98"></polygon>
</g>
<!-- domn5&#45;&gt;domn3 -->
<g id="e4" class="edge">
<title>domn5:e-&gt;domn3</title>
<path fill="none" stroke="black" d="M162,-126C175.26,-126 190.25,-121.33 198.41,-118.37"></path>
<polygon fill="black" stroke="black" points="199.43,-119.85 203.47,-116.43 198.17,-116.59 199.43,-119.85"></polygon>
</g>
<!-- codomn4 -->
<!-- f -->
<g id="n4" class="node">
<title>codomn4</title>
<polygon fill="none" stroke="black" points="289.5,-16 289.5,-41 304.5,-41 304.5,-16 289.5,-16"></polygon>
<text text-anchor="start" x="294.5" y="-24.8" font-family="Serif" font-size="14.00">f</text>
</g>
<!-- domn5&#45;&gt;codomn4 -->
<g id="edge13" class="edge">
<title>domn5-&gt;codomn4</title>
<path fill="none" stroke="red" d="M162.21,-128.78C173.74,-131.46 197.81,-135.4 215.5,-127 250.7,-110.3 275.53,-69.69 287.46,-46.32"></path>
<polygon fill="red" stroke="red" points="289.14,-46.87 289.81,-41.62 286.01,-45.31 289.14,-46.87"></polygon>
</g>
<!-- codomn1&#45;&gt;codomn3 -->
<g id="e1" class="edge">
<title>codomn1-&gt;codomn3:w</title>
<path fill="none" stroke="black" d="M156.53,-18.43C160.74,-20.15 177.15,-26.5 192.76,-27.78"></path>
<polygon fill="black" stroke="black" points="192.93,-29.54 198,-28 193.08,-26.04 192.93,-29.54"></polygon>
</g>
<!-- codomn2&#45;&gt;codomn4 -->
<g id="e3" class="edge">
<title>codomn2-&gt;codomn4:w</title>
<path fill="none" stroke="black" d="M253.15,-28C257.17,-28 271.02,-28 283.93,-28"></path>
<polygon fill="black" stroke="black" points="284,-29.75 289,-28 284,-26.25 284,-29.75"></polygon>
</g>
<!-- codomn3&#45;&gt;codomn2 -->
<g id="e2" class="edge">
<title>codomn3:e-&gt;codomn2</title>
<path fill="none" stroke="black" d="M214.5,-28C224.67,-28 236.48,-28 243.59,-28"></path>
<polygon fill="black" stroke="black" points="243.9,-29.75 248.9,-28 243.9,-26.25 243.9,-29.75"></polygon>
</g>
<!-- codomn4&#45;&gt;codomn2 -->
<g id="e4" class="edge">
<title>codomn4:e-&gt;codomn2</title>
<path fill="none" stroke="black" d="M305.5,-28C310.63,-28 308.28,-19.97 304.5,-16.5 291.26,-4.36 268.25,-16.98 257.64,-23.99"></path>
<polygon fill="black" stroke="black" points="256.64,-22.55 253.53,-26.84 258.64,-25.43 256.64,-22.55"></polygon>
</g>
</g>
</svg>