<svg width="336pt" height="204pt" viewBox="0.00 0.00 336.00 204.00" xmlns="http://www.w3.org/2000/svg" xmlns:xlink="http://www.w3.org/1999/xlink">
<g id="graph0" class="graph" transform="scale(1 1) rotate(0) translate(4 200)">
<title>hom_graph</title>
<polygon fill="white" stroke="none" points="-4,4 -4,-200 332,-200 332,4 -4,4"></polygon>
<g id="clust1" class="cluster">
<title>cluster_dom</title>
<polygon fill="none" stroke="black" points="8,-20 8,-84 220.5,-84 220.5,-20 8,-20"></polygon>
</g>
<g id="clust2" class="cluster">
<title>cluster_cod</title>
<polygon fill="none" stroke="black" points="147.5,-92 147.5,-176 320,-176 320,-92 147.5,-92"></polygon>
</g>
<!-- domn1 -->
<!-- junction -->
<g id="n1" class="node">
<title>domn1</title>
<ellipse fill="black" stroke="black" cx="18" cy="-31" rx="2" ry="2"></ellipse>
</g>
<!-- domn4 -->
<!-- h -->
<g id="n4" class="node">
<title>domn4</title>
<polygon fill="none" stroke="black" points="149.5,-28 149.5,-76 166.5,-76 166.5,-28 149.5,-28"></polygon>
<text text-anchor="start" x="154.5" y="-48.3" font-family="Serif" font-size="14.00">h</text>
</g>
<!-- domn1&#45;&gt;domn4 -->
<g id="e1" class="edge">
<title>domn1-&gt;domn4:w</title>
<path fill="none" stroke="black" d="M20.34,-31.26C26.42,-32.46 52.04,-37.51 73,-42 90.82,-45.82 95.52,-45.86 113,-51 127.36,-55.22 130.97,-62.24 143.46,-63.72"></path>
<polygon fill="black" stroke="black" points="143.41,-65.47 148.5,-64 143.61,-61.97 143.41,-65.47"></polygon>
</g>
<!-- domn5 -->
<!-- g -->
<g id="n5" class="node">
<title>domn5</title>
<polygon fill="none" stroke="black" points="56.5,-50 56.5,-75 73.5,-75 73.5,-50 56.5,-50"></polygon>
<text text-anchor="start" x="61.5" y="-58.8" font-family="Serif" font-size="14.00">g</text>
</g>
<!-- domn1&#45;&gt;domn5 -->
<g id="e4" class="edge">
<title>domn1-&gt;domn5:w</title>
<path fill="none" stroke="black" d="M19.71,-32.33C22.67,-37.71 34.65,-57.71 50.85,-61.41"></path>
<polygon fill="black" stroke="black" points="50.83,-63.17 56,-62 51.23,-59.69 50.83,-63.17"></polygon>
</g>
<!-- codomn2 -->
<!-- junction -->
<g id="n2" class="node">
<title>codomn2</title>
<ellipse fill="black" stroke="black" cx="257" cy="-124" rx="2" ry="2"></ellipse>
</g>
<!-- domn1&#45;&gt;codomn2 -->
<g id="edge11" class="edge">
<title>domn1-&gt;codomn2</title>
<path fill="none" stroke="blue" d="M20.23,-30.23C28,-25.46 71.28,0 110,0 110,0 110,0 158.5,0 218.59,0 247.3,-91.08 254.28,-117.12"></path>
<polygon fill="blue" stroke="blue" points="252.65,-117.84 255.59,-122.25 256.04,-116.97 252.65,-117.84"></polygon>
</g>
<!-- domn2 -->
<!-- junction -->
<g id="n2" class="node">
<title>domn2</title>
<ellipse fill="black" stroke="black" cx="111" cy="-62" rx="2" ry="2"></ellipse>
</g>
<!-- domn2&#45;&gt;domn4 -->
<g id="e2" class="edge">
<title>domn2-&gt;domn4:w</title>
<path fill="none" stroke="black" d="M112.79,-61.05C116.04,-57.27 128.9,-43.29 143.49,-40.49"></path>
<polygon fill="black" stroke="black" points="143.69,-42.23 148.5,-40 143.35,-38.75 143.69,-42.23"></polygon>
</g>
<!-- codomn1 -->
<!-- junction -->
<g id="n1" class="node">
<title>codomn1</title>
<ellipse fill="black" stroke="black" cx="157.5" cy="-112" rx="2" ry="2"></ellipse>
</g>
<!-- domn2&#45;&gt;codomn1 -->
<g id="edge12" class="edge">
<title>domn2-&gt;codomn1</title>
<path fill="none" stroke="blue" d="M113.1,-63.24C118.49,-69.29 142.21,-95.94 152.12,-107.08"></path>
<polygon fill="blue" stroke="blue" points="150.96,-108.41 155.59,-110.98 153.57,-106.08 150.96,-108.41"></polygon>
</g>
<!-- domn3 -->
<!-- junction -->
<g id="n3" class="node">
<title>domn3</title>
<ellipse fill="black" stroke="black" cx="210.5" cy="-63" rx="2" ry="2"></ellipse>
</g>
<!-- domn3&#45;&gt;codomn2 -->
<g id="edge13" class="edge">
<title>domn3-&gt;codomn2</title>
<path fill="none" stroke="blue" d="M212.27,-64.06C217,-70.54 242.15,-105.02 252.02,-118.55"></path>
<polygon fill="blue" stroke="blue" points="250.7,-119.7 255.06,-122.71 253.53,-117.64 250.7,-119.7"></polygon>
</g>
<!-- domn4&#45;&gt;domn3 -->
<g id="e3" class="edge">
<title>domn4:e-&gt;domn3</title>
<path fill="none" stroke="black" d="M166,-52C179.9,-52 195.57,-57.35 203.78,-60.59"></path>
<polygon fill="black" stroke="black" points="203.16,-62.22 208.45,-62.53 204.5,-58.99 203.16,-62.22"></polygon>
</g>
<!-- codomn3 -->
<!-- h -->
<g id="n3" class="node">
<title>codomn3</title>
<polygon fill="none" stroke="black" points="202.5,-100 202.5,-148 219.5,-148 219.5,-100 202.5,-100"></polygon>
<text text-anchor="start" x="207.5" y="-120.3" font-family="Serif" font-size="14.00">h</text>
</g>
<!-- domn4&#45;&gt;codomn3 -->
<g id="edge14" class="edge">
<title>domn4-&gt;codomn3</title>
<path fill="none" stroke="red" d="M166.03,-62.62C174.69,-74.85 188.98,-95.03 198.8,-108.9"></path>
<polygon fill="red" stroke="red" points="197.63,-110.26 201.94,-113.33 200.48,-108.24 197.63,-110.26"></polygon>
</g>
<!-- domn5&#45;&gt;domn2 -->
<g id="e5" class="edge">
<title>domn5:e-&gt;domn2</title>
<path fill="none" stroke="black" d="M73,-62C83.82,-62 96.42,-62 103.77,-62"></path>
<polygon fill="black" stroke="black" points="103.85,-63.75 108.85,-62 103.85,-60.25 103.85,-63.75"></polygon>
</g>
<!-- codomn4 -->
<!-- g -->
<g id="n4" class="node">
<title>codomn4</title>
<polygon fill="none" stroke="black" points="295.5,-142 295.5,-167 312.5,-167 312.5,-142 295.5,-142"></polygon>
<text text-anchor="start" x="300.5" y="-150.8" font-family="Serif" font-size="14.00">g</text>
</g>
<!-- domn5&#45;&gt;codomn4 -->
<g id="edge15" class="edge">
<title>domn5-&gt;codomn4</title>
<path fill="none" stroke="red" d="M67.86,-75.75C74.83,-109.04 98.59,-196 156.5,-196 156.5,-196 156.5,-196 211.5,-196 242.23,-196 274.05,-176.33 290.71,-164.24"></path>
<polygon fill="red" stroke="red" points="292.02,-165.44 294.99,-161.05 289.93,-162.63 292.02,-165.44"></polygon>
</g>
<!-- codomn1&#45;&gt;codomn3 -->
<g id="e2" class="edge">
<title>codomn1-&gt;codomn3:w</title>
<path fill="none" stroke="black" d="M159.58,-112C163.97,-112 181.06,-112 196.75,-112"></path>
<polygon fill="black" stroke="black" points="197,-113.75 202,-112 197,-110.25 197,-113.75"></polygon>
</g>
<!-- codomn2&#45;&gt;codomn3 -->
<g id="e1" class="edge">
<title>codomn2-&gt;codomn3:w</title>
<path fill="none" stroke="black" d="M254.97,-125.01C250.87,-128.93 235.15,-143.22 219,-148 211.97,-150.08 207.9,-152.97 202.5,-148 200.41,-146.07 198.75,-142.81 198.45,-140.17"></path>
<polygon fill="black" stroke="black" points="199.96,-141.07 201.5,-136 197.14,-139 199.96,-141.07"></polygon>
</g>
<!-- codomn2&#45;&gt;codomn4 -->
<g id="e4" class="edge">
<title>codomn2-&gt;codomn4:w</title>
<path fill="none" stroke="black" d="M258.72,-125.29C261.73,-130.49 273.87,-149.84 289.9,-153.43"></path>
<polygon fill="black" stroke="black" points="289.84,-155.18 295,-154 290.23,-151.7 289.84,-155.18"></polygon>
</g>
<!-- codomn3&#45;&gt;codomn2 -->
<g id="e3" class="edge">
<title>codomn3:e-&gt;codomn2</title>
<path fill="none" stroke="black" d="M220.5,-124C230.67,-124 242.48,-124 249.59,-124"></path>
<polygon fill="black" stroke="black" points="249.9,-125.75 254.9,-124 249.9,-122.25 249.9,-125.75"></polygon>
</g>
<!-- codomn4&#45;&gt;codomn1 -->
<g id="e5" class="edge">
<title>codomn4:e-&gt;codomn1</title>
<path fill="none" stroke="black" d="M313.5,-154C318.63,-154 316.28,-145.97 312.5,-142.5 306.77,-137.24 302.74,-141.75 295,-142.5 227.45,-149.01 217.75,-163.68 202,-157 183.09,-148.98 168.39,-128.27 161.99,-117.99"></path>
<polygon fill="black" stroke="black" points="163.38,-116.89 159.32,-113.49 160.37,-118.68 163.38,-116.89"></polygon>
</g>
</g>
</svg>