<svg width="177pt" height="88pt" viewBox="0.00 0.00 177.00 88.00" xmlns="http://www.w3.org/2000/svg" xmlns:xlink="http://www.w3.org/1999/xlink">
<g id="graph0" class="graph" transform="scale(1 1) rotate(0) translate(4 84)">
<title>hom_graph</title>
<polygon fill="white" stroke="none" points="-4,4 -4,-84 173,-84 173,4 -4,4"></polygon>
<g id="clust1" class="cluster">
<title>cluster_dom</title>
<polygon fill="none" stroke="black" points="8,-18 8,-60 28,-60 28,-18 8,-18"></polygon>
</g>
<g id="clust2" class="cluster">
<title>cluster_cod</title>
<polygon fill="none" stroke="black" points="48,-8 48,-72 161,-72 161,-8 48,-8"></polygon>
</g>
<!-- domn1 -->
<!-- junction -->
<g id="n1" class="node">
<title>domn1</title>
<ellipse fill="black" stroke="black" cx="18" cy="-50" rx="2" ry="2"></ellipse>
</g>
<!-- codomn1 -->
<!-- junction -->
<g id="n1" class="node">
<title>codomn1</title>
<ellipse fill="black" stroke="black" cx="58" cy="-51" rx="2" ry="2"></ellipse>
</g>
<!-- domn1&#45;&gt;codomn1 -->
<g id="edge4" class="edge">
<title>domn1-&gt;codomn1</title>
<path fill="none" stroke="blue" d="M20.26,-50.03C24.91,-50.16 41.22,-50.58 50.47,-50.83"></path>
<polygon fill="blue" stroke="blue" points="50.65,-52.58 55.69,-50.97 50.74,-49.08 50.65,-52.58"></polygon>
</g>
<!-- domn2 -->
<!-- junction -->
<g id="n2" class="node">
<title>domn2</title>
<ellipse fill="black" stroke="black" cx="18" cy="-28" rx="2" ry="2"></ellipse>
</g>
<!-- codomn2 -->
<!-- junction -->
<g id="n2" class="node">
<title>codomn2</title>
<ellipse fill="black" stroke="black" cx="58" cy="-28" rx="2" ry="2"></ellipse>
</g>
<!-- domn2&#45;&gt;codomn2 -->
<g id="edge5" class="edge">
<title>domn2-&gt;codomn2</title>
<path fill="none" stroke="blue" d="M20.26,-28C24.91,-28 41.22,-28 50.47,-28"></path>
<polygon fill="blue" stroke="blue" points="50.69,-29.75 55.69,-28 50.69,-26.25 50.69,-29.75"></polygon>
</g>
<!-- codomn4 -->
<!-- h -->
<g id="n4" class="node">
<title>codomn4</title>
<polygon fill="none" stroke="black" points="96.5,-16 96.5,-64 113.5,-64 113.5,-16 96.5,-16"></polygon>
<text text-anchor="start" x="101.5" y="-36.3" font-family="Serif" font-size="14.00">h</text>
</g>
<!-- codomn1&#45;&gt;codomn4 -->
<g id="e1" class="edge">
<title>codomn1-&gt;codomn4:w</title>
<path fill="none" stroke="black" d="M60.15,-51.05C64.17,-51.24 78.01,-51.83 90.93,-51.97"></path>
<polygon fill="black" stroke="black" points="90.99,-53.72 96,-52 91.01,-50.22 90.99,-53.72"></polygon>
</g>
<!-- codomn2&#45;&gt;codomn4 -->
<g id="e2" class="edge">
<title>codomn2-&gt;codomn4:w</title>
<path fill="none" stroke="black" d="M60.15,-28C64.17,-28 78.02,-28 90.93,-28"></path>
<polygon fill="black" stroke="black" points="91,-29.75 96,-28 91,-26.25 91,-29.75"></polygon>
</g>
<!-- codomn3 -->
<!-- junction -->
<g id="n3" class="node">
<title>codomn3</title>
<ellipse fill="black" stroke="black" cx="151" cy="-40" rx="2" ry="2"></ellipse>
</g>
<!-- codomn4&#45;&gt;codomn3 -->
<g id="e3" class="edge">
<title>codomn4:e-&gt;codomn3</title>
<path fill="none" stroke="black" d="M113,-40C123.82,-40 136.42,-40 143.77,-40"></path>
<polygon fill="black" stroke="black" points="143.85,-41.75 148.85,-40 143.85,-38.25 143.85,-41.75"></polygon>
</g>
</g>
</svg>