<svg width="710pt" height="76pt" viewBox="0.00 0.00 710.00 76.00" xmlns="http://www.w3.org/2000/svg" xmlns:xlink="http://www.w3.org/1999/xlink">
<g id="graph0" class="graph" transform="scale(1 1) rotate(0) translate(4 72)">
<title>G</title>
<polygon fill="white" stroke="none" points="-4,4 -4,-72 706,-72 706,4 -4,4"></polygon>
<!-- n1 -->
<!-- junction -->
<g id="n1" class="node">
<title>n1</title>
<ellipse fill="black" stroke="black" cx="55" cy="-51.5" rx="2" ry="2"></ellipse>
</g>
<!-- n15 -->
<!-- h -->
<g id="n15" class="node">
<title>n15</title>
<polygon fill="none" stroke="black" points="93.5,-13.5 93.5,-61.5 110.5,-61.5 110.5,-13.5 93.5,-13.5"></polygon>
<text text-anchor="start" x="98.5" y="-33.8" font-family="Serif" font-size="14.00">h</text>
</g>
<!-- n1&#45;&gt;n15 -->
<g id="e9" class="edge">
<title>n1-&gt;n15:w</title>
<path fill="none" stroke="black" d="M57.15,-51.39C61.16,-51.03 75,-49.83 87.93,-49.56"></path>
<polygon fill="black" stroke="black" points="88.02,-51.31 93,-49.5 87.98,-47.81 88.02,-51.31"></polygon>
</g>
<!-- n2 -->
<!-- junction -->
<g id="n2" class="node">
<title>n2</title>
<ellipse fill="black" stroke="black" cx="55" cy="-20.5" rx="2" ry="2"></ellipse>
</g>
<!-- n2&#45;&gt;n15 -->
<g id="e10" class="edge">
<title>n2-&gt;n15:w</title>
<path fill="none" stroke="black" d="M57.14,-20.77C61.13,-21.69 74.91,-24.67 87.9,-25.36"></path>
<polygon fill="black" stroke="black" points="87.95,-27.11 93,-25.5 88.05,-23.61 87.95,-27.11"></polygon>
</g>
<!-- n3 -->
<!-- junction -->
<g id="n3" class="node">
<title>n3</title>
<ellipse fill="black" stroke="black" cx="148" cy="-37.5" rx="2" ry="2"></ellipse>
</g>
<!-- n10 -->
<!-- f -->
<g id="n10" class="node">
<title>n10</title>
<polygon fill="none" stroke="black" points="186.5,-4.5 186.5,-29.5 201.5,-29.5 201.5,-4.5 186.5,-4.5"></polygon>
<text text-anchor="start" x="191.5" y="-13.3" font-family="Serif" font-size="14.00">f</text>
</g>
<!-- n3&#45;&gt;n10 -->
<g id="e1" class="edge">
<title>n3-&gt;n10:w</title>
<path fill="none" stroke="black" d="M149.81,-36.6C153.16,-32.99 166.35,-19.64 180.99,-16.97"></path>
<polygon fill="black" stroke="black" points="181.18,-18.71 186,-16.5 180.86,-15.22 181.18,-18.71"></polygon>
</g>
<!-- n16 -->
<!-- h -->
<g id="n16" class="node">
<title>n16</title>
<polygon fill="none" stroke="black" points="552.5,-16.5 552.5,-64.5 569.5,-64.5 569.5,-16.5 552.5,-16.5"></polygon>
<text text-anchor="start" x="557.5" y="-36.8" font-family="Serif" font-size="14.00">h</text>
</g>
<!-- n3&#45;&gt;n16 -->
<g id="e12" class="edge">
<title>n3-&gt;n16:w</title>
<path fill="none" stroke="black" d="M150.23,-38.02C158,-41.25 201.17,-58.5 238,-58.5 238,-58.5 238,-58.5 468.5,-58.5 503.96,-58.5 513.88,-53.05 546.95,-52.54"></path>
<polygon fill="black" stroke="black" points="547.01,-54.29 552,-52.5 546.99,-50.79 547.01,-54.29"></polygon>
</g>
<!-- n4 -->
<!-- junction -->
<g id="n4" class="node">
<title>n4</title>
<ellipse fill="black" stroke="black" cx="239" cy="-16.5" rx="2" ry="2"></ellipse>
</g>
<!-- n11 -->
<!-- f -->
<g id="n11" class="node">
<title>n11</title>
<polygon fill="none" stroke="black" points="277.5,-4.5 277.5,-29.5 292.5,-29.5 292.5,-4.5 277.5,-4.5"></polygon>
<text text-anchor="start" x="282.5" y="-13.3" font-family="Serif" font-size="14.00">f</text>
</g>
<!-- n4&#45;&gt;n11 -->
<g id="e3" class="edge">
<title>n4-&gt;n11:w</title>
<path fill="none" stroke="black" d="M241.15,-16.5C245.17,-16.5 259.02,-16.5 271.93,-16.5"></path>
<polygon fill="black" stroke="black" points="272,-18.25 277,-16.5 272,-14.75 272,-18.25"></polygon>
</g>
<!-- n5 -->
<!-- junction -->
<g id="n5" class="node">
<title>n5</title>
<ellipse fill="black" stroke="black" cx="330" cy="-16.5" rx="2" ry="2"></ellipse>
</g>
<!-- n12 -->
<!-- f -->
<g id="n12" class="node">
<title>n12</title>
<polygon fill="none" stroke="black" points="368.5,-4.5 368.5,-29.5 383.5,-29.5 383.5,-4.5 368.5,-4.5"></polygon>
<text text-anchor="start" x="373.5" y="-13.3" font-family="Serif" font-size="14.00">f</text>
</g>
<!-- n5&#45;&gt;n12 -->
<g id="e5" class="edge">
<title>n5-&gt;n12:w</title>
<path fill="none" stroke="black" d="M332.15,-16.5C336.17,-16.5 350.02,-16.5 362.93,-16.5"></path>
<polygon fill="black" stroke="black" points="363,-18.25 368,-16.5 363,-14.75 363,-18.25"></polygon>
</g>
<!-- n6 -->
<!-- junction -->
<g id="n6" class="node">
<title>n6</title>
<ellipse fill="black" stroke="black" cx="421" cy="-16.5" rx="2" ry="2"></ellipse>
</g>
<!-- n17 -->
<!-- g -->
<g id="n17" class="node">
<title>n17</title>
<polygon fill="none" stroke="black" points="459.5,-4.5 459.5,-29.5 476.5,-29.5 476.5,-4.5 459.5,-4.5"></polygon>
<text text-anchor="start" x="464.5" y="-13.3" font-family="Serif" font-size="14.00">g</text>
</g>
<!-- n6&#45;&gt;n17 -->
<g id="e15" class="edge">
<title>n6-&gt;n17:w</title>
<path fill="none" stroke="black" d="M423.15,-16.5C427.17,-16.5 441.02,-16.5 453.93,-16.5"></path>
<polygon fill="black" stroke="black" points="454,-18.25 459,-16.5 454,-14.75 454,-18.25"></polygon>
</g>
<!-- n7 -->
<!-- junction -->
<g id="n7" class="node">
<title>n7</title>
<ellipse fill="black" stroke="black" cx="514" cy="-22.5" rx="2" ry="2"></ellipse>
</g>
<!-- n7&#45;&gt;n16 -->
<g id="e13" class="edge">
<title>n7-&gt;n16:w</title>
<path fill="none" stroke="black" d="M516.14,-22.82C520.12,-23.92 533.86,-27.51 546.88,-28.33"></path>
<polygon fill="black" stroke="black" points="546.94,-30.08 552,-28.5 547.06,-26.58 546.94,-30.08"></polygon>
</g>
<!-- n8 -->
<!-- junction -->
<g id="n8" class="node">
<title>n8</title>
<ellipse fill="black" stroke="black" cx="607" cy="-40.5" rx="2" ry="2"></ellipse>
</g>
<!-- n18 -->
<!-- g -->
<g id="n18" class="node">
<title>n18</title>
<polygon fill="none" stroke="black" points="645.5,-28.5 645.5,-53.5 662.5,-53.5 662.5,-28.5 645.5,-28.5"></polygon>
<text text-anchor="start" x="650.5" y="-37.3" font-family="Serif" font-size="14.00">g</text>
</g>
<!-- n8&#45;&gt;n18 -->
<g id="e17" class="edge">
<title>n8-&gt;n18:w</title>
<path fill="none" stroke="black" d="M609.15,-40.5C613.17,-40.5 627.02,-40.5 639.93,-40.5"></path>
<polygon fill="black" stroke="black" points="640,-42.25 645,-40.5 640,-38.75 640,-42.25"></polygon>
</g>
<!-- n9 -->
<!-- junction -->
<g id="n9" class="node">
<title>n9</title>
<ellipse fill="black" stroke="black" cx="700" cy="-40.5" rx="2" ry="2"></ellipse>
</g>
<!-- n10&#45;&gt;n4 -->
<g id="e2" class="edge">
<title>n10:e-&gt;n4</title>
<path fill="none" stroke="black" d="M201,-16.5C211.82,-16.5 224.42,-16.5 231.77,-16.5"></path>
<polygon fill="black" stroke="black" points="231.85,-18.25 236.85,-16.5 231.85,-14.75 231.85,-18.25"></polygon>
</g>
<!-- n11&#45;&gt;n5 -->
<g id="e4" class="edge">
<title>n11:e-&gt;n5</title>
<path fill="none" stroke="black" d="M292,-16.5C302.82,-16.5 315.42,-16.5 322.77,-16.5"></path>
<polygon fill="black" stroke="black" points="322.85,-18.25 327.85,-16.5 322.85,-14.75 322.85,-18.25"></polygon>
</g>
<!-- n12&#45;&gt;n6 -->
<g id="e6" class="edge">
<title>n12:e-&gt;n6</title>
<path fill="none" stroke="black" d="M383,-16.5C393.82,-16.5 406.42,-16.5 413.77,-16.5"></path>
<polygon fill="black" stroke="black" points="413.85,-18.25 418.85,-16.5 413.85,-14.75 413.85,-18.25"></polygon>
</g>
<!-- n13 -->
<!-- 9 -->
<g id="n13" class="node">
<title>n13</title>
<polygon fill="none" stroke="black" points="0.5,0.5 0.5,-24.5 17.5,-24.5 17.5,0.5 0.5,0.5"></polygon>
<text text-anchor="start" x="5.5" y="-8.3" font-family="Serif" font-size="14.00">9</text>
</g>
<!-- n13&#45;&gt;n2 -->
<g id="e7" class="edge">
<title>n13:e-&gt;n2</title>
<path fill="none" stroke="black" d="M17,-11.5C28.14,-11.5 40.64,-15.4 47.88,-18.06"></path>
<polygon fill="black" stroke="black" points="47.58,-19.82 52.87,-20.02 48.86,-16.56 47.58,-19.82"></polygon>
</g>
<!-- n14 -->
<!-- 8 -->
<g id="n14" class="node">
<title>n14</title>
<polygon fill="none" stroke="black" points="0.5,-42.5 0.5,-67.5 17.5,-67.5 17.5,-42.5 0.5,-42.5"></polygon>
<text text-anchor="start" x="5.5" y="-51.3" font-family="Serif" font-size="14.00">8</text>
</g>
<!-- n14&#45;&gt;n1 -->
<g id="e8" class="edge">
<title>n14:e-&gt;n1</title>
<path fill="none" stroke="black" d="M17,-54.5C27.86,-54.5 40.44,-53.2 47.79,-52.31"></path>
<polygon fill="black" stroke="black" points="48.12,-54.03 52.85,-51.66 47.67,-50.56 48.12,-54.03"></polygon>
</g>
<!-- n15&#45;&gt;n3 -->
<g id="e11" class="edge">
<title>n15:e-&gt;n3</title>
<path fill="none" stroke="black" d="M110,-37.5C120.82,-37.5 133.42,-37.5 140.77,-37.5"></path>
<polygon fill="black" stroke="black" points="140.85,-39.25 145.85,-37.5 140.85,-35.75 140.85,-39.25"></polygon>
</g>
<!-- n16&#45;&gt;n8 -->
<g id="e14" class="edge">
<title>n16:e-&gt;n8</title>
<path fill="none" stroke="black" d="M569,-40.5C579.82,-40.5 592.42,-40.5 599.77,-40.5"></path>
<polygon fill="black" stroke="black" points="599.85,-42.25 604.85,-40.5 599.85,-38.75 599.85,-42.25"></polygon>
</g>
<!-- n17&#45;&gt;n7 -->
<g id="e16" class="edge">
<title>n17:e-&gt;n7</title>
<path fill="none" stroke="black" d="M476,-16.5C486.96,-16.5 499.52,-19.1 506.82,-20.87"></path>
<polygon fill="black" stroke="black" points="506.58,-22.62 511.86,-22.18 507.46,-19.23 506.58,-22.62"></polygon>
</g>
<!-- n18&#45;&gt;n9 -->
<g id="e18" class="edge">
<title>n18:e-&gt;n9</title>
<path fill="none" stroke="black" d="M662,-40.5C672.82,-40.5 685.42,-40.5 692.77,-40.5"></path>
<polygon fill="black" stroke="black" points="692.85,-42.25 697.85,-40.5 692.85,-38.75 692.85,-42.25"></polygon>
</g>
</g>
</svg>