<svg width="880pt" height="202pt" viewBox="0.00 0.00 880.00 202.00" xmlns="http://www.w3.org/2000/svg" xmlns:xlink="http://www.w3.org/1999/xlink">
<g id="graph0" class="graph" transform="scale(1 1) rotate(0) translate(4 198)">
<title>hom_graph</title>
<polygon fill="white" stroke="none" points="-4,4 -4,-198 876,-198 876,4 -4,4"></polygon>
<g id="clust1" class="cluster">
<title>cluster_dom</title>
<polygon fill="none" stroke="black" points="8,-101 8,-186 817.5,-186 817.5,-101 8,-101"></polygon>
</g>
<g id="clust2" class="cluster">
<title>cluster_cod</title>
<polygon fill="none" stroke="black" points="61,-8 61,-93 864,-93 864,-8 61,-8"></polygon>
</g>
<!-- domn1 -->
<!-- junction -->
<g id="n1" class="node">
<title>domn1</title>
<ellipse fill="black" stroke="black" cx="77.5" cy="-145" rx="2" ry="2"></ellipse>
</g>
<!-- domn15 -->
<!-- h -->
<g id="n15" class="node">
<title>domn15</title>
<polygon fill="none" stroke="black" points="122.5,-109 122.5,-157 139.5,-157 139.5,-109 122.5,-109"></polygon>
<text text-anchor="start" x="127.5" y="-129.3" font-family="Serif" font-size="14.00">h</text>
</g>
<!-- domn1&#45;&gt;domn15 -->
<g id="e9" class="edge">
<title>domn1-&gt;domn15:w</title>
<path fill="none" stroke="black" d="M79.58,-145C83.97,-145 101.06,-145 116.75,-145"></path>
<polygon fill="black" stroke="black" points="117,-146.75 122,-145 117,-143.25 117,-146.75"></polygon>
</g>
<!-- codomn1 -->
<!-- junction -->
<g id="n1" class="node">
<title>codomn1</title>
<ellipse fill="black" stroke="black" cx="130.5" cy="-73" rx="2" ry="2"></ellipse>
</g>
<!-- domn1&#45;&gt;codomn1 -->
<g id="edge39" class="edge">
<title>domn1-&gt;codomn1</title>
<path fill="none" stroke="blue" d="M79.39,-143.75C84.95,-135.9 115.16,-93.25 125.79,-78.23"></path>
<polygon fill="blue" stroke="blue" points="127.28,-79.16 128.74,-74.07 124.43,-77.14 127.28,-79.16"></polygon>
</g>
<!-- domn2 -->
<!-- junction -->
<g id="n2" class="node">
<title>domn2</title>
<ellipse fill="black" stroke="black" cx="77.5" cy="-121" rx="2" ry="2"></ellipse>
</g>
<!-- domn2&#45;&gt;domn15 -->
<g id="e10" class="edge">
<title>domn2-&gt;domn15:w</title>
<path fill="none" stroke="black" d="M79.58,-121C83.97,-121 101.06,-121 116.75,-121"></path>
<polygon fill="black" stroke="black" points="117,-122.75 122,-121 117,-119.25 117,-122.75"></polygon>
</g>
<!-- codomn2 -->
<!-- junction -->
<g id="n2" class="node">
<title>codomn2</title>
<ellipse fill="black" stroke="black" cx="130.5" cy="-49" rx="2" ry="2"></ellipse>
</g>
<!-- domn2&#45;&gt;codomn2 -->
<g id="edge40" class="edge">
<title>domn2-&gt;codomn2</title>
<path fill="none" stroke="blue" d="M79.39,-119.75C84.95,-111.9 115.16,-69.25 125.79,-54.23"></path>
<polygon fill="blue" stroke="blue" points="127.28,-55.16 128.74,-50.07 124.43,-53.14 127.28,-55.16"></polygon>
</g>
<!-- domn3 -->
<!-- junction -->
<g id="n3" class="node">
<title>domn3</title>
<ellipse fill="black" stroke="black" cx="183.5" cy="-127" rx="2" ry="2"></ellipse>
</g>
<!-- domn10 -->
<!-- f -->
<g id="n10" class="node">
<title>domn10</title>
<polygon fill="none" stroke="black" points="228.5,-109 228.5,-134 243.5,-134 243.5,-109 228.5,-109"></polygon>
<text text-anchor="start" x="233.5" y="-117.8" font-family="Serif" font-size="14.00">f</text>
</g>
<!-- domn3&#45;&gt;domn10 -->
<g id="e1" class="edge">
<title>domn3-&gt;domn10:w</title>
<path fill="none" stroke="black" d="M185.57,-126.74C189.93,-125.71 206.92,-121.9 222.71,-121.13"></path>
<polygon fill="black" stroke="black" points="223.05,-122.88 228,-121 222.96,-119.38 223.05,-122.88"></polygon>
</g>
<!-- domn16 -->
<!-- h -->
<g id="n16" class="node">
<title>domn16</title>
<polygon fill="none" stroke="black" points="640.5,-109 640.5,-157 657.5,-157 657.5,-109 640.5,-109"></polygon>
<text text-anchor="start" x="645.5" y="-129.3" font-family="Serif" font-size="14.00">h</text>
</g>
<!-- domn3&#45;&gt;domn16 -->
<g id="e12" class="edge">
<title>domn3-&gt;domn16:w</title>
<path fill="none" stroke="black" d="M185.55,-127.5C190.32,-129.76 210.51,-139.11 228,-144 252.98,-150.98 259.56,-154 285.5,-154 285.5,-154 285.5,-154 543.5,-154 584.72,-154 595.98,-145.76 634.62,-145.05"></path>
<polygon fill="black" stroke="black" points="635.02,-146.8 640,-145 634.98,-143.3 635.02,-146.8"></polygon>
</g>
<!-- codomn3 -->
<!-- junction -->
<g id="n3" class="node">
<title>codomn3</title>
<ellipse fill="black" stroke="black" cx="235.5" cy="-66" rx="2" ry="2"></ellipse>
</g>
<!-- domn3&#45;&gt;codomn3 -->
<g id="edge41" class="edge">
<title>domn3-&gt;codomn3</title>
<path fill="none" stroke="blue" d="M185.37,-125.94C190.68,-119.46 218.94,-84.98 230.03,-71.45"></path>
<polygon fill="blue" stroke="blue" points="231.63,-72.26 233.44,-67.29 228.92,-70.05 231.63,-72.26"></polygon>
</g>
<!-- domn4 -->
<!-- junction -->
<g id="n4" class="node">
<title>domn4</title>
<ellipse fill="black" stroke="black" cx="286.5" cy="-121" rx="2" ry="2"></ellipse>
</g>
<!-- domn11 -->
<!-- f -->
<g id="n11" class="node">
<title>domn11</title>
<polygon fill="none" stroke="black" points="330.5,-109 330.5,-134 345.5,-134 345.5,-109 330.5,-109"></polygon>
<text text-anchor="start" x="335.5" y="-117.8" font-family="Serif" font-size="14.00">f</text>
</g>
<!-- domn4&#45;&gt;domn11 -->
<g id="e3" class="edge">
<title>domn4-&gt;domn11:w</title>
<path fill="none" stroke="black" d="M288.55,-121C292.84,-121 309.54,-121 324.87,-121"></path>
<polygon fill="black" stroke="black" points="325,-122.75 330,-121 325,-119.25 325,-122.75"></polygon>
</g>
<!-- codomn4 -->
<!-- junction -->
<g id="n4" class="node">
<title>codomn4</title>
<ellipse fill="black" stroke="black" cx="337.5" cy="-71" rx="2" ry="2"></ellipse>
</g>
<!-- domn4&#45;&gt;codomn4 -->
<g id="edge42" class="edge">
<title>domn4-&gt;codomn4</title>
<path fill="none" stroke="blue" d="M288.35,-120.13C293.51,-114.87 320.76,-87.06 331.83,-75.77"></path>
<polygon fill="blue" stroke="blue" points="333.22,-76.85 335.47,-72.06 330.72,-74.4 333.22,-76.85"></polygon>
</g>
<!-- domn5 -->
<!-- junction -->
<g id="n5" class="node">
<title>domn5</title>
<ellipse fill="black" stroke="black" cx="388.5" cy="-121" rx="2" ry="2"></ellipse>
</g>
<!-- domn12 -->
<!-- f -->
<g id="n12" class="node">
<title>domn12</title>
<polygon fill="none" stroke="black" points="432.5,-109 432.5,-134 447.5,-134 447.5,-109 432.5,-109"></polygon>
<text text-anchor="start" x="437.5" y="-117.8" font-family="Serif" font-size="14.00">f</text>
</g>
<!-- domn5&#45;&gt;domn12 -->
<g id="e5" class="edge">
<title>domn5-&gt;domn12:w</title>
<path fill="none" stroke="black" d="M390.55,-121C394.84,-121 411.54,-121 426.87,-121"></path>
<polygon fill="black" stroke="black" points="427,-122.75 432,-121 427,-119.25 427,-122.75"></polygon>
</g>
<!-- codomn5 -->
<!-- junction -->
<g id="n5" class="node">
<title>codomn5</title>
<ellipse fill="black" stroke="black" cx="439.5" cy="-71" rx="2" ry="2"></ellipse>
</g>
<!-- domn5&#45;&gt;codomn5 -->
<g id="edge43" class="edge">
<title>domn5-&gt;codomn5</title>
<path fill="none" stroke="blue" d="M390.35,-120.13C395.51,-114.87 422.76,-87.06 433.83,-75.77"></path>
<polygon fill="blue" stroke="blue" points="435.22,-76.85 437.47,-72.06 432.72,-74.4 435.22,-76.85"></polygon>
</g>
<!-- domn6 -->
<!-- junction -->
<g id="n6" class="node">
<title>domn6</title>
<ellipse fill="black" stroke="black" cx="490.5" cy="-121" rx="2" ry="2"></ellipse>
</g>
<!-- domn17 -->
<!-- g -->
<g id="n17" class="node">
<title>domn17</title>
<polygon fill="none" stroke="black" points="534.5,-109 534.5,-134 551.5,-134 551.5,-109 534.5,-109"></polygon>
<text text-anchor="start" x="539.5" y="-117.8" font-family="Serif" font-size="14.00">g</text>
</g>
<!-- domn6&#45;&gt;domn17 -->
<g id="e15" class="edge">
<title>domn6-&gt;domn17:w</title>
<path fill="none" stroke="black" d="M492.55,-121C496.84,-121 513.54,-121 528.87,-121"></path>
<polygon fill="black" stroke="black" points="529,-122.75 534,-121 529,-119.25 529,-122.75"></polygon>
</g>
<!-- codomn6 -->
<!-- junction -->
<g id="n6" class="node">
<title>codomn6</title>
<ellipse fill="black" stroke="black" cx="542.5" cy="-82" rx="2" ry="2"></ellipse>
</g>
<!-- domn6&#45;&gt;codomn6 -->
<g id="edge44" class="edge">
<title>domn6-&gt;codomn6</title>
<path fill="none" stroke="blue" d="M492.74,-120.04C498.73,-115.36 524.97,-94.9 536.28,-86.07"></path>
<polygon fill="blue" stroke="blue" points="537.61,-87.25 540.48,-82.8 535.46,-84.49 537.61,-87.25"></polygon>
</g>
<!-- domn7 -->
<!-- junction -->
<g id="n7" class="node">
<title>domn7</title>
<ellipse fill="black" stroke="black" cx="595.5" cy="-121" rx="2" ry="2"></ellipse>
</g>
<!-- domn7&#45;&gt;domn16 -->
<g id="e13" class="edge">
<title>domn7-&gt;domn16:w</title>
<path fill="none" stroke="black" d="M597.58,-121C601.97,-121 619.06,-121 634.75,-121"></path>
<polygon fill="black" stroke="black" points="635,-122.75 640,-121 635,-119.25 635,-122.75"></polygon>
</g>
<!-- codomn7 -->
<!-- junction -->
<g id="n7" class="node">
<title>codomn7</title>
<ellipse fill="black" stroke="black" cx="648.5" cy="-60" rx="2" ry="2"></ellipse>
</g>
<!-- domn7&#45;&gt;codomn7 -->
<g id="edge45" class="edge">
<title>domn7-&gt;codomn7</title>
<path fill="none" stroke="blue" d="M597.39,-119.94C602.8,-113.46 631.63,-78.98 642.94,-65.45"></path>
<polygon fill="blue" stroke="blue" points="644.56,-66.25 646.42,-61.29 641.87,-64 644.56,-66.25"></polygon>
</g>
<!-- domn8 -->
<!-- junction -->
<g id="n8" class="node">
<title>domn8</title>
<ellipse fill="black" stroke="black" cx="701.5" cy="-121" rx="2" ry="2"></ellipse>
</g>
<!-- domn18 -->
<!-- g -->
<g id="n18" class="node">
<title>domn18</title>
<polygon fill="none" stroke="black" points="746.5,-109 746.5,-134 763.5,-134 763.5,-109 746.5,-109"></polygon>
<text text-anchor="start" x="751.5" y="-117.8" font-family="Serif" font-size="14.00">g</text>
</g>
<!-- domn8&#45;&gt;domn18 -->
<g id="e17" class="edge">
<title>domn8-&gt;domn18:w</title>
<path fill="none" stroke="black" d="M703.58,-121C707.97,-121 725.06,-121 740.75,-121"></path>
<polygon fill="black" stroke="black" points="741,-122.75 746,-121 741,-119.25 741,-122.75"></polygon>
</g>
<!-- codomn8 -->
<!-- junction -->
<g id="n8" class="node">
<title>codomn8</title>
<ellipse fill="black" stroke="black" cx="754.5" cy="-71" rx="2" ry="2"></ellipse>
</g>
<!-- domn8&#45;&gt;codomn8 -->
<g id="edge46" class="edge">
<title>domn8-&gt;codomn8</title>
<path fill="none" stroke="blue" d="M703.39,-120.13C708.76,-114.87 737.12,-87.06 748.64,-75.77"></path>
<polygon fill="blue" stroke="blue" points="750.08,-76.81 752.42,-72.06 747.63,-74.31 750.08,-76.81"></polygon>
</g>
<!-- domn9 -->
<!-- junction -->
<g id="n9" class="node">
<title>domn9</title>
<ellipse fill="black" stroke="black" cx="807.5" cy="-116" rx="2" ry="2"></ellipse>
</g>
<!-- codomn9 -->
<!-- junction -->
<g id="n9" class="node">
<title>codomn9</title>
<ellipse fill="black" stroke="black" cx="854" cy="-77" rx="2" ry="2"></ellipse>
</g>
<!-- domn9&#45;&gt;codomn9 -->
<g id="edge47" class="edge">
<title>domn9-&gt;codomn9</title>
<path fill="none" stroke="blue" d="M809.6,-115.04C814.89,-110.4 837.86,-90.27 848.07,-81.32"></path>
<polygon fill="blue" stroke="blue" points="849.48,-82.41 852.09,-77.8 847.18,-79.78 849.48,-82.41"></polygon>
</g>
<!-- domn10&#45;&gt;domn4 -->
<g id="e2" class="edge">
<title>domn10:e-&gt;domn4</title>
<path fill="none" stroke="black" d="M243,-121C255.91,-121 271.03,-121 279.31,-121"></path>
<polygon fill="black" stroke="black" points="279.45,-122.75 284.45,-121 279.45,-119.25 279.45,-122.75"></polygon>
</g>
<!-- codomn10 -->
<!-- f -->
<g id="n10" class="node">
<title>codomn10</title>
<polygon fill="none" stroke="black" points="279.5,-59 279.5,-84 294.5,-84 294.5,-59 279.5,-59"></polygon>
<text text-anchor="start" x="284.5" y="-67.8" font-family="Serif" font-size="14.00">f</text>
</g>
<!-- domn10&#45;&gt;codomn10 -->
<g id="edge48" class="edge">
<title>domn10-&gt;codomn10</title>
<path fill="none" stroke="red" d="M243.31,-115.05C251.58,-106.61 265.59,-92.31 275.18,-82.53"></path>
<polygon fill="red" stroke="red" points="276.49,-83.69 278.74,-78.89 274,-81.24 276.49,-83.69"></polygon>
</g>
<!-- domn11&#45;&gt;domn5 -->
<g id="e4" class="edge">
<title>domn11:e-&gt;domn5</title>
<path fill="none" stroke="black" d="M345,-121C357.91,-121 373.03,-121 381.31,-121"></path>
<polygon fill="black" stroke="black" points="381.45,-122.75 386.45,-121 381.45,-119.25 381.45,-122.75"></polygon>
</g>
<!-- codomn11 -->
<!-- f -->
<g id="n11" class="node">
<title>codomn11</title>
<polygon fill="none" stroke="black" points="381.5,-59 381.5,-84 396.5,-84 396.5,-59 381.5,-59"></polygon>
<text text-anchor="start" x="386.5" y="-67.8" font-family="Serif" font-size="14.00">f</text>
</g>
<!-- domn11&#45;&gt;codomn11 -->
<g id="edge49" class="edge">
<title>domn11-&gt;codomn11</title>
<path fill="none" stroke="red" d="M345.31,-115.05C353.58,-106.61 367.59,-92.31 377.18,-82.53"></path>
<polygon fill="red" stroke="red" points="378.49,-83.69 380.74,-78.89 376,-81.24 378.49,-83.69"></polygon>
</g>
<!-- domn12&#45;&gt;domn6 -->
<g id="e6" class="edge">
<title>domn12:e-&gt;domn6</title>
<path fill="none" stroke="black" d="M447,-121C459.91,-121 475.03,-121 483.31,-121"></path>
<polygon fill="black" stroke="black" points="483.45,-122.75 488.45,-121 483.45,-119.25 483.45,-122.75"></polygon>
</g>
<!-- codomn12 -->
<!-- f -->
<g id="n12" class="node">
<title>codomn12</title>
<polygon fill="none" stroke="black" points="483.5,-59 483.5,-84 498.5,-84 498.5,-59 483.5,-59"></polygon>
<text text-anchor="start" x="488.5" y="-67.8" font-family="Serif" font-size="14.00">f</text>
</g>
<!-- domn12&#45;&gt;codomn12 -->
<g id="edge50" class="edge">
<title>domn12-&gt;codomn12</title>
<path fill="none" stroke="red" d="M447.31,-115.05C455.58,-106.61 469.59,-92.31 479.18,-82.53"></path>
<polygon fill="red" stroke="red" points="480.49,-83.69 482.74,-78.89 478,-81.24 480.49,-83.69"></polygon>
</g>
<!-- domn13 -->
<!-- 9 -->
<g id="n13" class="node">
<title>domn13</title>
<polygon fill="none" stroke="black" points="16.5,-109 16.5,-134 33.5,-134 33.5,-109 16.5,-109"></polygon>
<text text-anchor="start" x="21.5" y="-117.8" font-family="Serif" font-size="14.00">9</text>
</g>
<!-- domn13&#45;&gt;domn2 -->
<g id="e7" class="edge">
<title>domn13:e-&gt;domn2</title>
<path fill="none" stroke="black" d="M33,-121C46.22,-121 61.69,-121 70.16,-121"></path>
<polygon fill="black" stroke="black" points="70.42,-122.75 75.42,-121 70.42,-119.25 70.42,-122.75"></polygon>
</g>
<!-- codomn13 -->
<!-- 9 -->
<g id="n13" class="node">
<title>codomn13</title>
<polygon fill="none" stroke="black" points="69.5,-16 69.5,-41 86.5,-41 86.5,-16 69.5,-16"></polygon>
<text text-anchor="start" x="74.5" y="-24.8" font-family="Serif" font-size="14.00">9</text>
</g>
<!-- domn13&#45;&gt;codomn13 -->
<g id="edge51" class="edge">
<title>domn13-&gt;codomn13</title>
<path fill="none" stroke="red" d="M30.88,-109.41C37.34,-94.76 48.82,-70 61,-50 62.47,-47.58 64.15,-45.09 65.85,-42.71"></path>
<polygon fill="red" stroke="red" points="67.33,-43.65 68.87,-38.58 64.51,-41.58 67.33,-43.65"></polygon>
</g>
<!-- domn14 -->
<!-- 8 -->
<g id="n14" class="node">
<title>domn14</title>
<polygon fill="none" stroke="black" points="16.5,-152 16.5,-177 33.5,-177 33.5,-152 16.5,-152"></polygon>
<text text-anchor="start" x="21.5" y="-160.8" font-family="Serif" font-size="14.00">8</text>
</g>
<!-- domn14&#45;&gt;domn1 -->
<g id="e8" class="edge">
<title>domn14:e-&gt;domn1</title>
<path fill="none" stroke="black" d="M33,-164C48,-164 63.66,-154.4 71.46,-148.84"></path>
<polygon fill="black" stroke="black" points="72.55,-150.22 75.5,-145.82 70.45,-147.42 72.55,-150.22"></polygon>
</g>
<!-- codomn14 -->
<!-- 8 -->
<g id="n14" class="node">
<title>codomn14</title>
<polygon fill="none" stroke="black" points="69.5,-59 69.5,-84 86.5,-84 86.5,-59 69.5,-59"></polygon>
<text text-anchor="start" x="74.5" y="-67.8" font-family="Serif" font-size="14.00">8</text>
</g>
<!-- domn14&#45;&gt;codomn14 -->
<g id="edge52" class="edge">
<title>domn14-&gt;codomn14</title>
<path fill="none" stroke="red" d="M31.77,-152.32C38.66,-138.55 50.18,-115.97 61,-97 62.59,-94.2 64.34,-91.27 66.07,-88.44"></path>
<polygon fill="red" stroke="red" points="67.61,-89.27 68.75,-84.1 64.63,-87.43 67.61,-89.27"></polygon>
</g>
<!-- domn15&#45;&gt;domn3 -->
<g id="e11" class="edge">
<title>domn15:e-&gt;domn3</title>
<path fill="none" stroke="black" d="M139,-133C152.34,-133 167.77,-130.2 176.2,-128.42"></path>
<polygon fill="black" stroke="black" points="176.93,-130.05 181.43,-127.26 176.17,-126.64 176.93,-130.05"></polygon>
</g>
<!-- codomn15 -->
<!-- h -->
<g id="n15" class="node">
<title>codomn15</title>
<polygon fill="none" stroke="black" points="175.5,-37 175.5,-85 192.5,-85 192.5,-37 175.5,-37"></polygon>
<text text-anchor="start" x="180.5" y="-57.3" font-family="Serif" font-size="14.00">h</text>
</g>
<!-- domn15&#45;&gt;codomn15 -->
<g id="edge53" class="edge">
<title>domn15-&gt;codomn15</title>
<path fill="none" stroke="red" d="M139.03,-122.38C147.69,-110.15 161.98,-89.97 171.8,-76.1"></path>
<polygon fill="red" stroke="red" points="173.48,-76.76 174.94,-71.67 170.63,-74.74 173.48,-76.76"></polygon>
</g>
<!-- domn16&#45;&gt;domn8 -->
<g id="e14" class="edge">
<title>domn16:e-&gt;domn8</title>
<path fill="none" stroke="black" d="M657,-133C670.98,-133 686.62,-127.17 694.8,-123.63"></path>
<polygon fill="black" stroke="black" points="695.63,-125.18 699.45,-121.52 694.18,-121.99 695.63,-125.18"></polygon>
</g>
<!-- codomn16 -->
<!-- h -->
<g id="n16" class="node">
<title>codomn16</title>
<polygon fill="none" stroke="black" points="693.5,-37 693.5,-85 710.5,-85 710.5,-37 693.5,-37"></polygon>
<text text-anchor="start" x="698.5" y="-57.3" font-family="Serif" font-size="14.00">h</text>
</g>
<!-- domn16&#45;&gt;codomn16 -->
<g id="edge54" class="edge">
<title>domn16-&gt;codomn16</title>
<path fill="none" stroke="red" d="M657.03,-122.38C665.69,-110.15 679.98,-89.97 689.8,-76.1"></path>
<polygon fill="red" stroke="red" points="691.48,-76.76 692.94,-71.67 688.63,-74.74 691.48,-76.76"></polygon>
</g>
<!-- domn17&#45;&gt;domn7 -->
<g id="e16" class="edge">
<title>domn17:e-&gt;domn7</title>
<path fill="none" stroke="black" d="M551,-121C564.22,-121 579.69,-121 588.16,-121"></path>
<polygon fill="black" stroke="black" points="588.42,-122.75 593.42,-121 588.42,-119.25 588.42,-122.75"></polygon>
</g>
<!-- codomn17 -->
<!-- g -->
<g id="n17" class="node">
<title>codomn17</title>
<polygon fill="none" stroke="black" points="587.5,-59 587.5,-84 604.5,-84 604.5,-59 587.5,-59"></polygon>
<text text-anchor="start" x="592.5" y="-67.8" font-family="Serif" font-size="14.00">g</text>
</g>
<!-- domn17&#45;&gt;codomn17 -->
<g id="edge55" class="edge">
<title>domn17-&gt;codomn17</title>
<path fill="none" stroke="red" d="M551.03,-114.62C559.54,-106.28 573.49,-92.6 583.28,-83"></path>
<polygon fill="red" stroke="red" points="584.6,-84.16 586.94,-79.41 582.15,-81.66 584.6,-84.16"></polygon>
</g>
<!-- domn18&#45;&gt;domn9 -->
<g id="e18" class="edge">
<title>domn18:e-&gt;domn9</title>
<path fill="none" stroke="black" d="M763,-121C776.3,-121 791.75,-118.66 800.19,-117.18"></path>
<polygon fill="black" stroke="black" points="800.83,-118.85 805.43,-116.21 800.19,-115.4 800.83,-118.85"></polygon>
</g>
<!-- codomn18 -->
<!-- g -->
<g id="n18" class="node">
<title>codomn18</title>
<polygon fill="none" stroke="black" points="799.5,-59 799.5,-84 816.5,-84 816.5,-59 799.5,-59"></polygon>
<text text-anchor="start" x="804.5" y="-67.8" font-family="Serif" font-size="14.00">g</text>
</g>
<!-- domn18&#45;&gt;codomn18 -->
<g id="edge56" class="edge">
<title>domn18-&gt;codomn18</title>
<path fill="none" stroke="red" d="M763.03,-114.62C771.54,-106.28 785.49,-92.6 795.28,-83"></path>
<polygon fill="red" stroke="red" points="796.6,-84.16 798.94,-79.41 794.15,-81.66 796.6,-84.16"></polygon>
</g>
<!-- codomn1&#45;&gt;codomn15 -->
<g id="e9" class="edge">
<title>codomn1-&gt;codomn15:w</title>
<path fill="none" stroke="black" d="M132.58,-73C136.97,-73 154.06,-73 169.75,-73"></path>
<polygon fill="black" stroke="black" points="170,-74.75 175,-73 170,-71.25 170,-74.75"></polygon>
</g>
<!-- codomn2&#45;&gt;codomn15 -->
<g id="e10" class="edge">
<title>codomn2-&gt;codomn15:w</title>
<path fill="none" stroke="black" d="M132.58,-49C136.97,-49 154.06,-49 169.75,-49"></path>
<polygon fill="black" stroke="black" points="170,-50.75 175,-49 170,-47.25 170,-50.75"></polygon>
</g>
<!-- codomn3&#45;&gt;codomn10 -->
<g id="e1" class="edge">
<title>codomn3-&gt;codomn10:w</title>
<path fill="none" stroke="black" d="M237.55,-66.21C241.82,-67.07 258.44,-70.25 273.84,-70.89"></path>
<polygon fill="black" stroke="black" points="273.96,-72.64 279,-71 274.04,-69.14 273.96,-72.64"></polygon>
</g>
<!-- codomn3&#45;&gt;codomn16 -->
<g id="e12" class="edge">
<title>codomn3-&gt;codomn16:w</title>
<path fill="none" stroke="black" d="M237.4,-65.15C244.39,-58.64 290.87,-17 336.5,-17 336.5,-17 336.5,-17 596.5,-17 626.92,-17 630.87,-33.43 657,-49 671.84,-57.84 673.55,-70.17 687.69,-72.58"></path>
<polygon fill="black" stroke="black" points="687.88,-74.35 693,-73 688.15,-70.86 687.88,-74.35"></polygon>
</g>
<!-- codomn4&#45;&gt;codomn11 -->
<g id="e3" class="edge">
<title>codomn4-&gt;codomn11:w</title>
<path fill="none" stroke="black" d="M339.55,-71C343.84,-71 360.54,-71 375.87,-71"></path>
<polygon fill="black" stroke="black" points="376,-72.75 381,-71 376,-69.25 376,-72.75"></polygon>
</g>
<!-- codomn5&#45;&gt;codomn12 -->
<g id="e5" class="edge">
<title>codomn5-&gt;codomn12:w</title>
<path fill="none" stroke="black" d="M441.55,-71C445.84,-71 462.54,-71 477.87,-71"></path>
<polygon fill="black" stroke="black" points="478,-72.75 483,-71 478,-69.25 478,-72.75"></polygon>
</g>
<!-- codomn19 -->
<!-- g -->
<g id="n19" class="node">
<title>codomn19</title>
<polygon fill="none" stroke="black" points="534.5,-36 534.5,-61 551.5,-61 551.5,-36 534.5,-36"></polygon>
<text text-anchor="start" x="539.5" y="-44.8" font-family="Serif" font-size="14.00">g</text>
</g>
<!-- codomn5&#45;&gt;codomn19 -->
<g id="e19" class="edge">
<title>codomn5-&gt;codomn19:w</title>
<path fill="none" stroke="black" d="M441.49,-70.31C445.99,-67.21 465.13,-54.54 483,-50 503.27,-44.85 510.23,-47.49 528.97,-47.94"></path>
<polygon fill="black" stroke="black" points="528.98,-49.69 534,-48 529.02,-46.19 528.98,-49.69"></polygon>
</g>
<!-- codomn6&#45;&gt;codomn17 -->
<g id="e15" class="edge">
<title>codomn6-&gt;codomn17:w</title>
<path fill="none" stroke="black" d="M544.55,-81.53C548.85,-79.64 565.6,-72.65 581.62,-71.25"></path>
<polygon fill="black" stroke="black" points="582.08,-72.98 587,-71 581.93,-69.48 582.08,-72.98"></polygon>
</g>
<!-- codomn7&#45;&gt;codomn16 -->
<g id="e13" class="edge">
<title>codomn7-&gt;codomn16:w</title>
<path fill="none" stroke="black" d="M650.55,-59.53C654.85,-57.64 671.6,-50.65 687.62,-49.25"></path>
<polygon fill="black" stroke="black" points="688.08,-50.98 693,-49 687.93,-47.48 688.08,-50.98"></polygon>
</g>
<!-- codomn8&#45;&gt;codomn18 -->
<g id="e17" class="edge">
<title>codomn8-&gt;codomn18:w</title>
<path fill="none" stroke="black" d="M756.58,-71C760.97,-71 778.06,-71 793.75,-71"></path>
<polygon fill="black" stroke="black" points="794,-72.75 799,-71 794,-69.25 794,-72.75"></polygon>
</g>
<!-- codomn10&#45;&gt;codomn4 -->
<g id="e2" class="edge">
<title>codomn10:e-&gt;codomn4</title>
<path fill="none" stroke="black" d="M294,-71C306.91,-71 322.03,-71 330.31,-71"></path>
<polygon fill="black" stroke="black" points="330.45,-72.75 335.45,-71 330.45,-69.25 330.45,-72.75"></polygon>
</g>
<!-- codomn11&#45;&gt;codomn5 -->
<g id="e4" class="edge">
<title>codomn11:e-&gt;codomn5</title>
<path fill="none" stroke="black" d="M396,-71C408.91,-71 424.03,-71 432.31,-71"></path>
<polygon fill="black" stroke="black" points="432.45,-72.75 437.45,-71 432.45,-69.25 432.45,-72.75"></polygon>
</g>
<!-- codomn12&#45;&gt;codomn6 -->
<g id="e6" class="edge">
<title>codomn12:e-&gt;codomn6</title>
<path fill="none" stroke="black" d="M498,-71C511.9,-71 527.57,-76.35 535.78,-79.59"></path>
<polygon fill="black" stroke="black" points="535.16,-81.22 540.45,-81.53 536.5,-77.99 535.16,-81.22"></polygon>
</g>
<!-- codomn13&#45;&gt;codomn2 -->
<g id="e7" class="edge">
<title>codomn13:e-&gt;codomn2</title>
<path fill="none" stroke="black" d="M86,-28C101.26,-28 116.81,-38.61 124.52,-44.75"></path>
<polygon fill="black" stroke="black" points="123.56,-46.22 128.51,-48.1 125.81,-43.54 123.56,-46.22"></polygon>
</g>
<!-- codomn14&#45;&gt;codomn1 -->
<g id="e8" class="edge">
<title>codomn14:e-&gt;codomn1</title>
<path fill="none" stroke="black" d="M86,-71C99.23,-71 114.7,-71.93 123.16,-72.53"></path>
<polygon fill="black" stroke="black" points="123.31,-74.29 128.42,-72.91 123.57,-70.8 123.31,-74.29"></polygon>
</g>
<!-- codomn15&#45;&gt;codomn3 -->
<g id="e11" class="edge">
<title>codomn15:e-&gt;codomn3</title>
<path fill="none" stroke="black" d="M192,-61C205,-61 220.09,-63.34 228.33,-64.82"></path>
<polygon fill="black" stroke="black" points="228.22,-66.57 233.45,-65.79 228.87,-63.14 228.22,-66.57"></polygon>
</g>
<!-- codomn16&#45;&gt;codomn8 -->
<g id="e14" class="edge">
<title>codomn16:e-&gt;codomn8</title>
<path fill="none" stroke="black" d="M710,-61C723.83,-61 739.52,-65.86 747.76,-68.81"></path>
<polygon fill="black" stroke="black" points="747.15,-70.45 752.44,-70.57 748.38,-67.17 747.15,-70.45"></polygon>
</g>
<!-- codomn17&#45;&gt;codomn7 -->
<g id="e16" class="edge">
<title>codomn17:e-&gt;codomn7</title>
<path fill="none" stroke="black" d="M604,-71C617.9,-71 633.57,-65.65 641.78,-62.41"></path>
<polygon fill="black" stroke="black" points="642.5,-64.01 646.45,-60.47 641.16,-60.78 642.5,-64.01"></polygon>
</g>
<!-- codomn18&#45;&gt;codomn9 -->
<g id="e18" class="edge">
<title>codomn18:e-&gt;codomn9</title>
<path fill="none" stroke="black" d="M817.5,-71C828.03,-71 840.07,-73.6 847.08,-75.37"></path>
<polygon fill="black" stroke="black" points="846.62,-77.06 851.91,-76.68 847.54,-73.69 846.62,-77.06"></polygon>
</g>
<!-- codomn19&#45;&gt;codomn7 -->
<g id="e20" class="edge">
<title>codomn19:e-&gt;codomn7</title>
<path fill="none" stroke="black" d="M551,-48C574.57,-48 580.63,-46.9 604,-50 617.44,-51.78 632.83,-55.8 641.23,-58.17"></path>
<polygon fill="black" stroke="black" points="641.15,-59.96 646.44,-59.68 642.12,-56.6 641.15,-59.96"></polygon>
</g>
</g>
</svg>