<svg width="860pt" height="468pt" viewBox="0.00 0.00 860.00 468.00" xmlns="http://www.w3.org/2000/svg" xmlns:xlink="http://www.w3.org/1999/xlink">
<g id="graph0" class="graph" transform="scale(1 1) rotate(0) translate(4 464)">
<title>hom_graph</title>
<polygon fill="white" stroke="none" points="-4,4 -4,-464 856,-464 856,4 -4,4"></polygon>
<g id="clust2" class="cluster">
<title>cluster_cod</title>
<polygon fill="none" stroke="black" points="245,-152 245,-257 844,-257 844,-152 245,-152"></polygon>
</g>
<g id="clust1" class="cluster">
<title>cluster_dom</title>
<polygon fill="none" stroke="black" points="8,-367 8,-452 797.5,-452 797.5,-367 8,-367"></polygon>
</g>
<!-- domn1 -->
<!-- junction -->
<g id="n1" class="node">
<title>domn1</title>
<ellipse fill="black" stroke="black" cx="71" cy="-411" rx="2" ry="2"></ellipse>
</g>
<!-- domn15 -->
<!-- h -->
<g id="n15" class="node">
<title>domn15</title>
<polygon fill="none" stroke="black" points="109.5,-375 109.5,-423 126.5,-423 126.5,-375 109.5,-375"></polygon>
<text text-anchor="start" x="114.5" y="-395.3" font-family="Serif" font-size="14.00">h</text>
</g>
<!-- domn1&#45;&gt;domn15 -->
<g id="e9" class="edge">
<title>domn1-&gt;domn15:w</title>
<path fill="none" stroke="black" d="M73.15,-411C77.17,-411 91.02,-411 103.93,-411"></path>
<polygon fill="black" stroke="black" points="104,-412.75 109,-411 104,-409.25 104,-412.75"></polygon>
</g>
<!-- codomn1 -->
<!-- junction -->
<g id="n1" class="node">
<title>codomn1</title>
<ellipse fill="black" stroke="black" cx="313.5" cy="-196" rx="2" ry="2"></ellipse>
</g>
<!-- domn1&#45;&gt;codomn1 -->
<g id="edge37" class="edge">
<title>domn1-&gt;codomn1</title>
<path fill="none" stroke="blue" d="M72.2,-409.35C74.88,-387.29 104.85,-152 163,-152 163,-152 163,-152 210.5,-152 250.68,-152 293.02,-181.14 307.39,-191.99"></path>
<polygon fill="blue" stroke="blue" points="306.54,-193.55 311.56,-195.24 308.69,-190.79 306.54,-193.55"></polygon>
</g>
<!-- domn2 -->
<!-- junction -->
<g id="n2" class="node">
<title>domn2</title>
<ellipse fill="black" stroke="black" cx="71" cy="-387" rx="2" ry="2"></ellipse>
</g>
<!-- domn2&#45;&gt;domn15 -->
<g id="e10" class="edge">
<title>domn2-&gt;domn15:w</title>
<path fill="none" stroke="black" d="M73.15,-387C77.17,-387 91.02,-387 103.93,-387"></path>
<polygon fill="black" stroke="black" points="104,-388.75 109,-387 104,-385.25 104,-388.75"></polygon>
</g>
<!-- codomn2 -->
<!-- junction -->
<g id="n2" class="node">
<title>codomn2</title>
<ellipse fill="black" stroke="black" cx="313.5" cy="-172" rx="2" ry="2"></ellipse>
</g>
<!-- domn2&#45;&gt;codomn2 -->
<g id="edge38" class="edge">
<title>domn2-&gt;codomn2</title>
<path fill="none" stroke="blue" d="M72.02,-384.9C72.25,-368.7 75.02,-261.98 109,-185 125.01,-148.73 123.35,-114 163,-114 163,-114 163,-114 210.5,-114 253.32,-114 294.58,-153.1 307.98,-167.09"></path>
<polygon fill="blue" stroke="blue" points="306.92,-168.52 311.61,-170.99 309.49,-166.14 306.92,-168.52"></polygon>
</g>
<!-- domn3 -->
<!-- junction -->
<g id="n3" class="node">
<title>domn3</title>
<ellipse fill="black" stroke="black" cx="164" cy="-393" rx="2" ry="2"></ellipse>
</g>
<!-- domn10 -->
<!-- f -->
<g id="n10" class="node">
<title>domn10</title>
<polygon fill="none" stroke="black" points="202.5,-375 202.5,-400 217.5,-400 217.5,-375 202.5,-375"></polygon>
<text text-anchor="start" x="207.5" y="-383.8" font-family="Serif" font-size="14.00">f</text>
</g>
<!-- domn3&#45;&gt;domn10 -->
<g id="e1" class="edge">
<title>domn3-&gt;domn10:w</title>
<path fill="none" stroke="black" d="M166.14,-392.68C170.12,-391.58 183.86,-387.99 196.88,-387.17"></path>
<polygon fill="black" stroke="black" points="197.06,-388.92 202,-387 196.94,-385.42 197.06,-388.92"></polygon>
</g>
<!-- domn16 -->
<!-- h -->
<g id="n16" class="node">
<title>domn16</title>
<polygon fill="none" stroke="black" points="620.5,-376 620.5,-424 637.5,-424 637.5,-376 620.5,-376"></polygon>
<text text-anchor="start" x="625.5" y="-396.3" font-family="Serif" font-size="14.00">h</text>
</g>
<!-- domn3&#45;&gt;domn16 -->
<g id="e12" class="edge">
<title>domn3-&gt;domn16:w</title>
<path fill="none" stroke="black" d="M165.85,-393.87C172.44,-400.51 216.33,-443 260.5,-443 260.5,-443 260.5,-443 523.5,-443 566.79,-443 574.39,-414.37 614.89,-412.14"></path>
<polygon fill="black" stroke="black" points="615.05,-413.88 620,-412 614.95,-410.39 615.05,-413.88"></polygon>
</g>
<!-- codomn3 -->
<!-- junction -->
<g id="n3" class="node">
<title>codomn3</title>
<ellipse fill="black" stroke="black" cx="417.5" cy="-173" rx="2" ry="2"></ellipse>
</g>
<!-- domn3&#45;&gt;codomn3 -->
<g id="edge39" class="edge">
<title>domn3-&gt;codomn3</title>
<path fill="none" stroke="blue" d="M165.08,-391.09C166.31,-363.15 182.32,-38 260.5,-38 260.5,-38 260.5,-38 314.5,-38 379.77,-38 408.58,-139.69 415.05,-166.56"></path>
<polygon fill="blue" stroke="blue" points="413.35,-167 416.18,-171.48 416.77,-166.22 413.35,-167"></polygon>
</g>
<!-- domn4 -->
<!-- junction -->
<g id="n4" class="node">
<title>domn4</title>
<ellipse fill="black" stroke="black" cx="261.5" cy="-387" rx="2" ry="2"></ellipse>
</g>
<!-- domn11 -->
<!-- f -->
<g id="n11" class="node">
<title>domn11</title>
<polygon fill="none" stroke="black" points="306.5,-375 306.5,-400 321.5,-400 321.5,-375 306.5,-375"></polygon>
<text text-anchor="start" x="311.5" y="-383.8" font-family="Serif" font-size="14.00">f</text>
</g>
<!-- domn4&#45;&gt;domn11 -->
<g id="e3" class="edge">
<title>domn4-&gt;domn11:w</title>
<path fill="none" stroke="black" d="M263.58,-387C267.97,-387 285.06,-387 300.75,-387"></path>
<polygon fill="black" stroke="black" points="301,-388.75 306,-387 301,-385.25 301,-388.75"></polygon>
</g>
<!-- codomn4 -->
<!-- junction -->
<g id="n4" class="node">
<title>codomn4</title>
<ellipse fill="black" stroke="black" cx="522.5" cy="-234" rx="2" ry="2"></ellipse>
</g>
<!-- domn4&#45;&gt;codomn4 -->
<g id="edge40" class="edge">
<title>domn4-&gt;codomn4</title>
<path fill="none" stroke="blue" d="M263.31,-385.95C269.59,-377.82 311.56,-324.71 357,-296 413.12,-260.54 492.62,-240.58 515.27,-235.38"></path>
<polygon fill="blue" stroke="blue" points="515.88,-237.04 520.38,-234.24 515.12,-233.62 515.88,-237.04"></polygon>
</g>
<!-- domn5 -->
<!-- junction -->
<g id="n5" class="node">
<title>domn5</title>
<ellipse fill="black" stroke="black" cx="365.5" cy="-387" rx="2" ry="2"></ellipse>
</g>
<!-- domn12 -->
<!-- f -->
<g id="n12" class="node">
<title>domn12</title>
<polygon fill="none" stroke="black" points="410.5,-375 410.5,-400 425.5,-400 425.5,-375 410.5,-375"></polygon>
<text text-anchor="start" x="415.5" y="-383.8" font-family="Serif" font-size="14.00">f</text>
</g>
<!-- domn5&#45;&gt;domn12 -->
<g id="e5" class="edge">
<title>domn5-&gt;domn12:w</title>
<path fill="none" stroke="black" d="M367.58,-387C371.97,-387 389.06,-387 404.75,-387"></path>
<polygon fill="black" stroke="black" points="405,-388.75 410,-387 405,-385.25 405,-388.75"></polygon>
</g>
<!-- domn19 -->
<!-- g -->
<g id="n19" class="node">
<title>domn19</title>
<polygon fill="none" stroke="black" points="461.5,-398 461.5,-423 478.5,-423 478.5,-398 461.5,-398"></polygon>
<text text-anchor="start" x="466.5" y="-406.8" font-family="Serif" font-size="14.00">g</text>
</g>
<!-- domn5&#45;&gt;domn19 -->
<g id="e19" class="edge">
<title>domn5-&gt;domn19:w</title>
<path fill="none" stroke="black" d="M367.5,-387.77C372.05,-391.24 391.43,-405.39 410,-410 430.28,-415.03 437.25,-410.79 455.97,-410.09"></path>
<polygon fill="black" stroke="black" points="456.03,-411.84 461,-410 455.97,-408.34 456.03,-411.84"></polygon>
</g>
<!-- domn5&#45;&gt;codomn4 -->
<g id="edge41" class="edge">
<title>domn5-&gt;codomn4</title>
<path fill="none" stroke="blue" d="M367.49,-386.02C379.29,-374.38 492.97,-262.16 517.04,-238.41"></path>
<polygon fill="blue" stroke="blue" points="518.27,-239.65 520.6,-234.89 515.81,-237.16 518.27,-239.65"></polygon>
</g>
<!-- domn6 -->
<!-- junction -->
<g id="n6" class="node">
<title>domn6</title>
<ellipse fill="black" stroke="black" cx="469.5" cy="-378" rx="2" ry="2"></ellipse>
</g>
<!-- domn17 -->
<!-- g -->
<g id="n17" class="node">
<title>domn17</title>
<polygon fill="none" stroke="black" points="514.5,-378 514.5,-403 531.5,-403 531.5,-378 514.5,-378"></polygon>
<text text-anchor="start" x="519.5" y="-386.8" font-family="Serif" font-size="14.00">g</text>
</g>
<!-- domn6&#45;&gt;domn17 -->
<g id="e15" class="edge">
<title>domn6-&gt;domn17:w</title>
<path fill="none" stroke="black" d="M471.55,-378.52C475.82,-380.58 492.52,-388.2 508.59,-389.73"></path>
<polygon fill="black" stroke="black" points="508.92,-391.5 514,-390 509.09,-388.01 508.92,-391.5"></polygon>
</g>
<!-- domn6&#45;&gt;codomn4 -->
<g id="edge42" class="edge">
<title>domn6-&gt;codomn4</title>
<path fill="none" stroke="blue" d="M471.07,-376.38C475.92,-362.71 510.05,-266.32 519.23,-240.4"></path>
<polygon fill="blue" stroke="blue" points="520.98,-240.72 521,-235.43 517.68,-239.55 520.98,-240.72"></polygon>
</g>
<!-- domn7 -->
<!-- junction -->
<g id="n7" class="node">
<title>domn7</title>
<ellipse fill="black" stroke="black" cx="575.5" cy="-389" rx="2" ry="2"></ellipse>
</g>
<!-- domn7&#45;&gt;domn16 -->
<g id="e13" class="edge">
<title>domn7-&gt;domn16:w</title>
<path fill="none" stroke="black" d="M577.58,-388.96C581.97,-388.79 599.05,-388.15 614.75,-388.02"></path>
<polygon fill="black" stroke="black" points="615.01,-389.77 620,-388 614.99,-386.27 615.01,-389.77"></polygon>
</g>
<!-- codomn5 -->
<!-- junction -->
<g id="n5" class="node">
<title>codomn5</title>
<ellipse fill="black" stroke="black" cx="628.5" cy="-235" rx="2" ry="2"></ellipse>
</g>
<!-- domn7&#45;&gt;codomn5 -->
<g id="edge43" class="edge">
<title>domn7-&gt;codomn5</title>
<path fill="none" stroke="blue" d="M577.07,-387.27C581.94,-372.59 616.34,-268.69 625.35,-241.5"></path>
<polygon fill="blue" stroke="blue" points="627.08,-241.82 627,-236.52 623.76,-240.72 627.08,-241.82"></polygon>
</g>
<!-- domn8 -->
<!-- junction -->
<g id="n8" class="node">
<title>domn8</title>
<ellipse fill="black" stroke="black" cx="681.5" cy="-387" rx="2" ry="2"></ellipse>
</g>
<!-- domn18 -->
<!-- g -->
<g id="n18" class="node">
<title>domn18</title>
<polygon fill="none" stroke="black" points="726.5,-375 726.5,-400 743.5,-400 743.5,-375 726.5,-375"></polygon>
<text text-anchor="start" x="731.5" y="-383.8" font-family="Serif" font-size="14.00">g</text>
</g>
<!-- domn8&#45;&gt;domn18 -->
<g id="e17" class="edge">
<title>domn8-&gt;domn18:w</title>
<path fill="none" stroke="black" d="M683.58,-387C687.97,-387 705.06,-387 720.75,-387"></path>
<polygon fill="black" stroke="black" points="721,-388.75 726,-387 721,-385.25 721,-388.75"></polygon>
</g>
<!-- codomn6 -->
<!-- junction -->
<g id="n6" class="node">
<title>codomn6</title>
<ellipse fill="black" stroke="black" cx="734.5" cy="-235" rx="2" ry="2"></ellipse>
</g>
<!-- domn8&#45;&gt;codomn6 -->
<g id="edge44" class="edge">
<title>domn8-&gt;codomn6</title>
<path fill="none" stroke="blue" d="M683.07,-385.29C687.94,-370.8 722.34,-268.25 731.35,-241.41"></path>
<polygon fill="blue" stroke="blue" points="733.06,-241.8 733,-236.5 729.75,-240.69 733.06,-241.8"></polygon>
</g>
<!-- domn9 -->
<!-- junction -->
<g id="n9" class="node">
<title>domn9</title>
<ellipse fill="black" stroke="black" cx="787.5" cy="-382" rx="2" ry="2"></ellipse>
</g>
<!-- codomn7 -->
<!-- junction -->
<g id="n7" class="node">
<title>codomn7</title>
<ellipse fill="black" stroke="black" cx="834" cy="-241" rx="2" ry="2"></ellipse>
</g>
<!-- domn9&#45;&gt;codomn7 -->
<g id="edge45" class="edge">
<title>domn9-&gt;codomn7</title>
<path fill="none" stroke="blue" d="M789,-380.42C793.23,-367.03 823.01,-272.65 831.02,-247.27"></path>
<polygon fill="blue" stroke="blue" points="832.72,-247.69 832.56,-242.4 829.39,-246.64 832.72,-247.69"></polygon>
</g>
<!-- domn10&#45;&gt;domn4 -->
<g id="e2" class="edge">
<title>domn10:e-&gt;domn4</title>
<path fill="none" stroke="black" d="M217,-387C230.22,-387 245.69,-387 254.16,-387"></path>
<polygon fill="black" stroke="black" points="254.42,-388.75 259.42,-387 254.42,-385.25 254.42,-388.75"></polygon>
</g>
<!-- codomn8 -->
<!-- f -->
<g id="n8" class="node">
<title>codomn8</title>
<polygon fill="none" stroke="black" points="462.5,-180 462.5,-205 477.5,-205 477.5,-180 462.5,-180"></polygon>
<text text-anchor="start" x="467.5" y="-188.8" font-family="Serif" font-size="14.00">f</text>
</g>
<!-- domn10&#45;&gt;codomn8 -->
<g id="edge46" class="edge">
<title>domn10-&gt;codomn8</title>
<path fill="none" stroke="red" d="M211.04,-375.09C214.22,-307.77 233.1,0 312.5,0 312.5,0 312.5,0 366.5,0 445.32,0 463.39,-127.39 467.4,-175.18"></path>
<polygon fill="red" stroke="red" points="465.67,-175.49 467.8,-180.34 469.16,-175.22 465.67,-175.49"></polygon>
</g>
<!-- domn11&#45;&gt;domn5 -->
<g id="e4" class="edge">
<title>domn11:e-&gt;domn5</title>
<path fill="none" stroke="black" d="M321,-387C334.22,-387 349.69,-387 358.16,-387"></path>
<polygon fill="black" stroke="black" points="358.42,-388.75 363.42,-387 358.42,-385.25 358.42,-388.75"></polygon>
</g>
<!-- codomn9 -->
<!-- f -->
<g id="n9" class="node">
<title>codomn9</title>
<polygon fill="none" stroke="black" points="568.5,-180 568.5,-205 583.5,-205 583.5,-180 568.5,-180"></polygon>
<text text-anchor="start" x="573.5" y="-188.8" font-family="Serif" font-size="14.00">f</text>
</g>
<!-- domn11&#45;&gt;codomn9 -->
<g id="edge47" class="edge">
<title>domn11-&gt;codomn9</title>
<path fill="none" stroke="red" d="M321.37,-384.43C349.35,-369.7 456.75,-311.31 531,-245 544.02,-233.37 556.55,-217.76 564.8,-206.69"></path>
<polygon fill="red" stroke="red" points="566.29,-207.61 567.84,-202.54 563.47,-205.54 566.29,-207.61"></polygon>
</g>
<!-- domn12&#45;&gt;domn6 -->
<g id="e6" class="edge">
<title>domn12:e-&gt;domn6</title>
<path fill="none" stroke="black" d="M425,-387C438.5,-387 453.87,-382.79 462.24,-380.13"></path>
<polygon fill="black" stroke="black" points="463.26,-381.64 467.44,-378.39 462.14,-378.32 463.26,-381.64"></polygon>
</g>
<!-- domn12&#45;&gt;codomn9 -->
<g id="edge48" class="edge">
<title>domn12-&gt;codomn9</title>
<path fill="none" stroke="red" d="M425.2,-383.57C444.09,-370.78 498.53,-331.91 531,-288 540.62,-275 557.94,-234.02 567.57,-210.34"></path>
<polygon fill="red" stroke="red" points="569.25,-210.86 569.5,-205.57 566,-209.55 569.25,-210.86"></polygon>
</g>
<!-- domn13 -->
<!-- 9 -->
<g id="n13" class="node">
<title>domn13</title>
<polygon fill="none" stroke="black" points="16.5,-375 16.5,-400 33.5,-400 33.5,-375 16.5,-375"></polygon>
<text text-anchor="start" x="21.5" y="-383.8" font-family="Serif" font-size="14.00">9</text>
</g>
<!-- domn13&#45;&gt;domn2 -->
<g id="e7" class="edge">
<title>domn13:e-&gt;domn2</title>
<path fill="none" stroke="black" d="M33,-387C43.82,-387 56.42,-387 63.77,-387"></path>
<polygon fill="black" stroke="black" points="63.85,-388.75 68.85,-387 63.85,-385.25 63.85,-388.75"></polygon>
</g>
<!-- codomn10 -->
<!-- 9 -->
<g id="n10" class="node">
<title>codomn10</title>
<polygon fill="none" stroke="black" points="253.5,-180 253.5,-205 270.5,-205 270.5,-180 253.5,-180"></polygon>
<text text-anchor="start" x="258.5" y="-188.8" font-family="Serif" font-size="14.00">9</text>
</g>
<!-- domn13&#45;&gt;codomn10 -->
<g id="edge49" class="edge">
<title>domn13-&gt;codomn10</title>
<path fill="none" stroke="red" d="M25.61,-375.34C26.71,-332.4 36.48,-195 116.5,-195 116.5,-195 116.5,-195 165,-195 194.46,-195 229.01,-194.04 247.41,-193.45"></path>
<polygon fill="red" stroke="red" points="247.64,-195.19 252.58,-193.28 247.52,-191.69 247.64,-195.19"></polygon>
</g>
<!-- domn14 -->
<!-- 8 -->
<g id="n14" class="node">
<title>domn14</title>
<polygon fill="none" stroke="black" points="16.5,-418 16.5,-443 33.5,-443 33.5,-418 16.5,-418"></polygon>
<text text-anchor="start" x="21.5" y="-426.8" font-family="Serif" font-size="14.00">8</text>
</g>
<!-- domn14&#45;&gt;domn1 -->
<g id="e8" class="edge">
<title>domn14:e-&gt;domn1</title>
<path fill="none" stroke="black" d="M33,-430C45.89,-430 58.79,-420.76 65.42,-415.17"></path>
<polygon fill="black" stroke="black" points="66.61,-416.46 69.17,-411.82 64.28,-413.85 66.61,-416.46"></polygon>
</g>
<!-- codomn11 -->
<!-- 8 -->
<g id="n11" class="node">
<title>codomn11</title>
<polygon fill="none" stroke="black" points="253.5,-223 253.5,-248 270.5,-248 270.5,-223 253.5,-223"></polygon>
<text text-anchor="start" x="258.5" y="-231.8" font-family="Serif" font-size="14.00">8</text>
</g>
<!-- domn14&#45;&gt;codomn11 -->
<g id="edge50" class="edge">
<title>domn14-&gt;codomn11</title>
<path fill="none" stroke="red" d="M30.72,-418.08C45.12,-383.42 86.35,-291 116.5,-291 116.5,-291 116.5,-291 165,-291 199.22,-291 232.24,-264.16 249.03,-247.98"></path>
<polygon fill="red" stroke="red" points="250.61,-248.87 252.94,-244.12 248.15,-246.38 250.61,-248.87"></polygon>
</g>
<!-- domn15&#45;&gt;domn3 -->
<g id="e11" class="edge">
<title>domn15:e-&gt;domn3</title>
<path fill="none" stroke="black" d="M126,-399C136.96,-399 149.52,-396.4 156.82,-394.63"></path>
<polygon fill="black" stroke="black" points="157.46,-396.27 161.86,-393.32 156.58,-392.88 157.46,-396.27"></polygon>
</g>
<!-- codomn12 -->
<!-- h -->
<g id="n12" class="node">
<title>codomn12</title>
<polygon fill="none" stroke="black" points="357.5,-160 357.5,-208 374.5,-208 374.5,-160 357.5,-160"></polygon>
<text text-anchor="start" x="362.5" y="-180.3" font-family="Serif" font-size="14.00">h</text>
</g>
<!-- domn15&#45;&gt;codomn12 -->
<g id="edge51" class="edge">
<title>domn15-&gt;codomn12</title>
<path fill="none" stroke="red" d="M120,-374.99C125.32,-300.13 146.43,-76 208.5,-76 208.5,-76 208.5,-76 262.5,-76 308.52,-76 339.95,-128.48 354.76,-160.27"></path>
<polygon fill="red" stroke="red" points="353.33,-161.36 357,-165.19 356.52,-159.91 353.33,-161.36"></polygon>
</g>
<!-- domn16&#45;&gt;domn8 -->
<g id="e14" class="edge">
<title>domn16:e-&gt;domn8</title>
<path fill="none" stroke="black" d="M637,-400C651.07,-400 666.67,-393.68 674.82,-389.85"></path>
<polygon fill="black" stroke="black" points="675.75,-391.34 679.46,-387.56 674.2,-388.21 675.75,-391.34"></polygon>
</g>
<!-- codomn13 -->
<!-- h -->
<g id="n13" class="node">
<title>codomn13</title>
<polygon fill="none" stroke="black" points="673.5,-201 673.5,-249 690.5,-249 690.5,-201 673.5,-201"></polygon>
<text text-anchor="start" x="678.5" y="-221.3" font-family="Serif" font-size="14.00">h</text>
</g>
<!-- domn16&#45;&gt;codomn13 -->
<g id="edge52" class="edge">
<title>domn16-&gt;codomn13</title>
<path fill="none" stroke="red" d="M636.59,-375.67C645.88,-343.8 662.14,-288 672.05,-253.98"></path>
<polygon fill="red" stroke="red" points="673.75,-254.42 673.47,-249.13 670.39,-253.44 673.75,-254.42"></polygon>
</g>
<!-- domn17&#45;&gt;domn7 -->
<g id="e16" class="edge">
<title>domn17:e-&gt;domn7</title>
<path fill="none" stroke="black" d="M531,-390C544.22,-390 559.69,-389.53 568.16,-389.24"></path>
<polygon fill="black" stroke="black" points="568.49,-390.98 573.42,-389.04 568.36,-387.48 568.49,-390.98"></polygon>
</g>
<!-- codomn14 -->
<!-- g -->
<g id="n14" class="node">
<title>codomn14</title>
<polygon fill="none" stroke="black" points="567.5,-223 567.5,-248 584.5,-248 584.5,-223 567.5,-223"></polygon>
<text text-anchor="start" x="572.5" y="-231.8" font-family="Serif" font-size="14.00">g</text>
</g>
<!-- domn17&#45;&gt;codomn14 -->
<g id="edge53" class="edge">
<title>domn17-&gt;codomn14</title>
<path fill="none" stroke="red" d="M527.67,-378.32C536.75,-350.73 558.31,-285.21 568.7,-253.63"></path>
<polygon fill="red" stroke="red" points="570.37,-254.16 570.27,-248.86 567.04,-253.06 570.37,-254.16"></polygon>
</g>
<!-- domn18&#45;&gt;domn9 -->
<g id="e18" class="edge">
<title>domn18:e-&gt;domn9</title>
<path fill="none" stroke="black" d="M743,-387C756.3,-387 771.75,-384.66 780.19,-383.18"></path>
<polygon fill="black" stroke="black" points="780.83,-384.85 785.43,-382.21 780.19,-381.4 780.83,-384.85"></polygon>
</g>
<!-- codomn15 -->
<!-- g -->
<g id="n15" class="node">
<title>codomn15</title>
<polygon fill="none" stroke="black" points="779.5,-223 779.5,-248 796.5,-248 796.5,-223 779.5,-223"></polygon>
<text text-anchor="start" x="784.5" y="-231.8" font-family="Serif" font-size="14.00">g</text>
</g>
<!-- domn18&#45;&gt;codomn15 -->
<g id="edge54" class="edge">
<title>domn18-&gt;codomn15</title>
<path fill="none" stroke="red" d="M739.76,-375.3C748.86,-348.19 770.2,-284.58 780.6,-253.59"></path>
<polygon fill="red" stroke="red" points="782.36,-253.85 782.29,-248.55 779.04,-252.74 782.36,-253.85"></polygon>
</g>
<!-- domn19&#45;&gt;domn7 -->
<g id="e20" class="edge">
<title>domn19:e-&gt;domn7</title>
<path fill="none" stroke="black" d="M478,-410C501.59,-410 508.15,-418.88 531,-413 546.2,-409.08 561.77,-398.61 569.51,-392.88"></path>
<polygon fill="black" stroke="black" points="570.61,-394.24 573.51,-389.81 568.48,-391.46 570.61,-394.24"></polygon>
</g>
<!-- domn19&#45;&gt;codomn14 -->
<g id="edge55" class="edge">
<title>domn19-&gt;codomn14</title>
<path fill="none" stroke="red" d="M478.14,-401.42C490.2,-386.04 514.02,-354.68 531,-326 545.38,-301.7 559.05,-271.93 567.11,-253.47"></path>
<polygon fill="red" stroke="red" points="568.85,-253.85 569.23,-248.57 565.64,-252.46 568.85,-253.85"></polygon>
</g>
<!-- codomn1&#45;&gt;codomn12 -->
<g id="e7" class="edge">
<title>codomn1-&gt;codomn12:w</title>
<path fill="none" stroke="black" d="M315.55,-196C319.84,-196 336.54,-196 351.87,-196"></path>
<polygon fill="black" stroke="black" points="352,-197.75 357,-196 352,-194.25 352,-197.75"></polygon>
</g>
<!-- codomn2&#45;&gt;codomn12 -->
<g id="e8" class="edge">
<title>codomn2-&gt;codomn12:w</title>
<path fill="none" stroke="black" d="M315.55,-172C319.84,-172 336.54,-172 351.87,-172"></path>
<polygon fill="black" stroke="black" points="352,-173.75 357,-172 352,-170.25 352,-173.75"></polygon>
</g>
<!-- codomn3&#45;&gt;codomn8 -->
<g id="e1" class="edge">
<title>codomn3-&gt;codomn8:w</title>
<path fill="none" stroke="black" d="M419.49,-173.82C423.58,-177.11 439.75,-189.37 456.35,-191.64"></path>
<polygon fill="black" stroke="black" points="456.39,-193.39 461.5,-192 456.64,-189.9 456.39,-193.39"></polygon>
</g>
<!-- codomn3&#45;&gt;codomn13 -->
<g id="e10" class="edge">
<title>codomn3-&gt;codomn13:w</title>
<path fill="none" stroke="black" d="M419.51,-172.79C427.33,-171.2 479.01,-161 521.5,-161 521.5,-161 521.5,-161 576.5,-161 629.28,-161 619.18,-232.04 667.78,-236.75"></path>
<polygon fill="black" stroke="black" points="667.92,-238.51 673,-237 668.09,-235.02 667.92,-238.51"></polygon>
</g>
<!-- codomn4&#45;&gt;codomn9 -->
<g id="e3" class="edge">
<title>codomn4-&gt;codomn9:w</title>
<path fill="none" stroke="black" d="M524.1,-232.6C527.09,-225.86 541.1,-196.8 562.27,-192.53"></path>
<polygon fill="black" stroke="black" points="562.7,-194.24 567.5,-192 562.35,-190.76 562.7,-194.24"></polygon>
</g>
<!-- codomn4&#45;&gt;codomn14 -->
<g id="e13" class="edge">
<title>codomn4-&gt;codomn14:w</title>
<path fill="none" stroke="black" d="M524.58,-234.04C528.97,-234.21 546.05,-234.85 561.75,-234.98"></path>
<polygon fill="black" stroke="black" points="561.99,-236.73 567,-235 562.01,-233.23 561.99,-236.73"></polygon>
</g>
<!-- codomn5&#45;&gt;codomn13 -->
<g id="e11" class="edge">
<title>codomn5-&gt;codomn13:w</title>
<path fill="none" stroke="black" d="M630.48,-234.05C634.54,-230.24 650.59,-216.05 667.68,-213.42"></path>
<polygon fill="black" stroke="black" points="668.15,-215.14 673,-213 667.88,-211.65 668.15,-215.14"></polygon>
</g>
<!-- codomn6&#45;&gt;codomn15 -->
<g id="e15" class="edge">
<title>codomn6-&gt;codomn15:w</title>
<path fill="none" stroke="black" d="M736.58,-235C740.97,-235 758.06,-235 773.75,-235"></path>
<polygon fill="black" stroke="black" points="774,-236.75 779,-235 774,-233.25 774,-236.75"></polygon>
</g>
<!-- codomn8&#45;&gt;codomn4 -->
<g id="e2" class="edge">
<title>codomn8:e-&gt;codomn4</title>
<path fill="none" stroke="black" d="M478,-192C498.38,-192 512.87,-216.16 518.68,-227.83"></path>
<polygon fill="black" stroke="black" points="517.21,-228.82 520.91,-232.6 520.38,-227.33 517.21,-228.82"></polygon>
</g>
<!-- codomn9&#45;&gt;codomn4 -->
<g id="e4" class="edge">
<title>codomn9:e-&gt;codomn4</title>
<path fill="none" stroke="black" d="M584.5,-192C599.53,-192 599.78,-165.6 568,-180.5 546.76,-190.46 532.14,-216.09 526.32,-227.89"></path>
<polygon fill="black" stroke="black" points="524.63,-227.37 524.09,-232.64 527.79,-228.86 524.63,-227.37"></polygon>
</g>
<!-- codomn10&#45;&gt;codomn2 -->
<g id="e5" class="edge">
<title>codomn10:e-&gt;codomn2</title>
<path fill="none" stroke="black" d="M270,-192C284.84,-192 300.06,-181.89 307.62,-176.05"></path>
<polygon fill="black" stroke="black" points="308.76,-177.38 311.53,-172.86 306.55,-174.66 308.76,-177.38"></polygon>
</g>
<!-- codomn11&#45;&gt;codomn1 -->
<g id="e6" class="edge">
<title>codomn11:e-&gt;codomn1</title>
<path fill="none" stroke="black" d="M270,-235C289.26,-235 303.58,-212.98 309.5,-202.03"></path>
<polygon fill="black" stroke="black" points="311.2,-202.55 311.91,-197.3 308.08,-200.96 311.2,-202.55"></polygon>
</g>
<!-- codomn12&#45;&gt;codomn3 -->
<g id="e9" class="edge">
<title>codomn12:e-&gt;codomn3</title>
<path fill="none" stroke="black" d="M374,-184C387.34,-184 402.3,-178.86 410.43,-175.61"></path>
<polygon fill="black" stroke="black" points="411.55,-177.03 415.47,-173.47 410.19,-173.81 411.55,-177.03"></polygon>
</g>
<!-- codomn13&#45;&gt;codomn6 -->
<g id="e12" class="edge">
<title>codomn13:e-&gt;codomn6</title>
<path fill="none" stroke="black" d="M690,-225C703.83,-225 719.52,-229.86 727.76,-232.81"></path>
<polygon fill="black" stroke="black" points="727.15,-234.45 732.44,-234.57 728.38,-231.17 727.15,-234.45"></polygon>
</g>
<!-- codomn14&#45;&gt;codomn5 -->
<g id="e14" class="edge">
<title>codomn14:e-&gt;codomn5</title>
<path fill="none" stroke="black" d="M584,-235C597.22,-235 612.69,-235 621.16,-235"></path>
<polygon fill="black" stroke="black" points="621.42,-236.75 626.42,-235 621.42,-233.25 621.42,-236.75"></polygon>
</g>
<!-- codomn15&#45;&gt;codomn7 -->
<g id="e16" class="edge">
<title>codomn15:e-&gt;codomn7</title>
<path fill="none" stroke="black" d="M797.5,-235C808.03,-235 820.07,-237.6 827.08,-239.37"></path>
<polygon fill="black" stroke="black" points="826.62,-241.06 831.91,-240.68 827.54,-237.69 826.62,-241.06"></polygon>
</g>
</g>
</svg>