<svg width="732pt" height="503pt" viewBox="0.00 0.00 732.00 503.00" xmlns="http://www.w3.org/2000/svg" xmlns:xlink="http://www.w3.org/1999/xlink">
<g id="graph0" class="graph" transform="scale(1 1) rotate(0) translate(4 499)">
<title>hom_graph</title>
<polygon fill="white" stroke="none" points="-4,4 -4,-499 728,-499 728,4 -4,4"></polygon>
<g id="clust1" class="cluster">
<title>cluster_dom</title>
<polygon fill="none" stroke="black" points="8,-362 8,-487 563.5,-487 563.5,-362 8,-362"></polygon>
</g>
<g id="clust2" class="cluster">
<title>cluster_cod</title>
<polygon fill="none" stroke="black" points="298,-187 298,-333 716,-333 716,-187 298,-187"></polygon>
</g>
<!-- domn1 -->
<!-- junction -->
<g id="n1" class="node">
<title>domn1</title>
<ellipse fill="black" stroke="black" cx="71" cy="-406" rx="2" ry="2"></ellipse>
</g>
<!-- domn12 -->
<!-- h -->
<g id="n12" class="node">
<title>domn12</title>
<polygon fill="none" stroke="black" points="109.5,-370 109.5,-418 126.5,-418 126.5,-370 109.5,-370"></polygon>
<text text-anchor="start" x="114.5" y="-390.3" font-family="Serif" font-size="14.00">h</text>
</g>
<!-- domn1&#45;&gt;domn12 -->
<g id="e7" class="edge">
<title>domn1-&gt;domn12:w</title>
<path fill="none" stroke="black" d="M73.15,-406C77.17,-406 91.02,-406 103.93,-406"></path>
<polygon fill="black" stroke="black" points="104,-407.75 109,-406 104,-404.25 104,-407.75"></polygon>
</g>
<!-- codomn1 -->
<!-- junction -->
<g id="n1" class="node">
<title>codomn1</title>
<ellipse fill="black" stroke="black" cx="361" cy="-241" rx="2" ry="2"></ellipse>
</g>
<!-- domn1&#45;&gt;codomn1 -->
<g id="edge35" class="edge">
<title>domn1-&gt;codomn1</title>
<path fill="none" stroke="blue" d="M72.41,-404.46C77.09,-387.06 121,-228 163,-228 163,-228 163,-228 262.5,-228 297.17,-228 338.16,-236.17 353.65,-239.56"></path>
<polygon fill="blue" stroke="blue" points="353.37,-241.29 358.63,-240.68 354.14,-237.88 353.37,-241.29"></polygon>
</g>
<!-- domn2 -->
<!-- junction -->
<g id="n2" class="node">
<title>domn2</title>
<ellipse fill="black" stroke="black" cx="71" cy="-382" rx="2" ry="2"></ellipse>
</g>
<!-- domn2&#45;&gt;domn12 -->
<g id="e8" class="edge">
<title>domn2-&gt;domn12:w</title>
<path fill="none" stroke="black" d="M73.15,-382C77.17,-382 91.02,-382 103.93,-382"></path>
<polygon fill="black" stroke="black" points="104,-383.75 109,-382 104,-380.25 104,-383.75"></polygon>
</g>
<!-- codomn2 -->
<!-- junction -->
<g id="n2" class="node">
<title>codomn2</title>
<ellipse fill="black" stroke="black" cx="361" cy="-217" rx="2" ry="2"></ellipse>
</g>
<!-- domn2&#45;&gt;codomn2 -->
<g id="edge36" class="edge">
<title>domn2-&gt;codomn2</title>
<path fill="none" stroke="blue" d="M71.98,-379.84C71.95,-358.75 74.47,-190 163,-190 163,-190 163,-190 262.5,-190 298.16,-190 338.57,-206.98 353.78,-214.01"></path>
<polygon fill="blue" stroke="blue" points="353.4,-215.76 358.66,-216.33 354.9,-212.6 353.4,-215.76"></polygon>
</g>
<!-- domn3 -->
<!-- junction -->
<g id="n3" class="node">
<title>domn3</title>
<ellipse fill="black" stroke="black" cx="164" cy="-394" rx="2" ry="2"></ellipse>
</g>
<!-- domn8 -->
<!-- f -->
<g id="n8" class="node">
<title>domn8</title>
<polygon fill="none" stroke="black" points="202.5,-370 202.5,-395 217.5,-395 217.5,-370 202.5,-370"></polygon>
<text text-anchor="start" x="207.5" y="-378.8" font-family="Serif" font-size="14.00">f</text>
</g>
<!-- domn3&#45;&gt;domn8 -->
<g id="e1" class="edge">
<title>domn3-&gt;domn8:w</title>
<path fill="none" stroke="black" d="M166.11,-393.35C169.98,-391.15 183.41,-383.99 196.73,-382.34"></path>
<polygon fill="black" stroke="black" points="197.12,-384.07 202,-382 196.9,-380.58 197.12,-384.07"></polygon>
</g>
<!-- domn13 -->
<!-- h -->
<g id="n13" class="node">
<title>domn13</title>
<polygon fill="none" stroke="black" points="399.5,-423 399.5,-471 416.5,-471 416.5,-423 399.5,-423"></polygon>
<text text-anchor="start" x="404.5" y="-443.3" font-family="Serif" font-size="14.00">h</text>
</g>
<!-- domn3&#45;&gt;domn13 -->
<g id="e10" class="edge">
<title>domn3-&gt;domn13:w</title>
<path fill="none" stroke="black" d="M165.7,-395.46C171.2,-406.61 208.39,-478 260.5,-478 260.5,-478 260.5,-478 315.5,-478 351.78,-478 360.18,-460.74 393.84,-459.12"></path>
<polygon fill="black" stroke="black" points="394.04,-460.87 399,-459 393.96,-457.37 394.04,-460.87"></polygon>
</g>
<!-- domn16 -->
<!-- g -->
<g id="n16" class="node">
<title>domn16</title>
<polygon fill="none" stroke="black" points="253.5,-403 253.5,-428 270.5,-428 270.5,-403 253.5,-403"></polygon>
<text text-anchor="start" x="258.5" y="-411.8" font-family="Serif" font-size="14.00">g</text>
</g>
<!-- domn3&#45;&gt;domn16 -->
<g id="e17" class="edge">
<title>domn3-&gt;domn16:w</title>
<path fill="none" stroke="black" d="M166.21,-394.52C173.53,-397.6 212.64,-413.41 247.84,-414.89"></path>
<polygon fill="black" stroke="black" points="247.96,-416.64 253,-415 248.04,-413.14 247.96,-416.64"></polygon>
</g>
<!-- codomn3 -->
<!-- junction -->
<g id="n3" class="node">
<title>codomn3</title>
<ellipse fill="black" stroke="black" cx="454" cy="-240" rx="2" ry="2"></ellipse>
</g>
<!-- domn3&#45;&gt;codomn3 -->
<g id="edge37" class="edge">
<title>domn3-&gt;codomn3</title>
<path fill="none" stroke="blue" d="M165.2,-392.21C167.87,-368.37 197.84,-114 260.5,-114 260.5,-114 260.5,-114 362,-114 421.2,-114 445.77,-206.55 451.58,-233.01"></path>
<polygon fill="blue" stroke="blue" points="449.93,-233.68 452.67,-238.22 453.36,-232.97 449.93,-233.68"></polygon>
</g>
<!-- domn4 -->
<!-- junction -->
<g id="n4" class="node">
<title>domn4</title>
<ellipse fill="black" stroke="black" cx="261.5" cy="-382" rx="2" ry="2"></ellipse>
</g>
<!-- domn9 -->
<!-- f -->
<g id="n9" class="node">
<title>domn9</title>
<polygon fill="none" stroke="black" points="307.5,-370 307.5,-395 322.5,-395 322.5,-370 307.5,-370"></polygon>
<text text-anchor="start" x="312.5" y="-378.8" font-family="Serif" font-size="14.00">f</text>
</g>
<!-- domn4&#45;&gt;domn9 -->
<g id="e3" class="edge">
<title>domn4-&gt;domn9:w</title>
<path fill="none" stroke="black" d="M263.59,-382C268.03,-382 285.32,-382 301.19,-382"></path>
<polygon fill="black" stroke="black" points="301.5,-383.75 306.5,-382 301.5,-380.25 301.5,-383.75"></polygon>
</g>
<!-- domn14 -->
<!-- g -->
<g id="n14" class="node">
<title>domn14</title>
<polygon fill="none" stroke="black" points="306.5,-413 306.5,-438 323.5,-438 323.5,-413 306.5,-413"></polygon>
<text text-anchor="start" x="311.5" y="-421.8" font-family="Serif" font-size="14.00">g</text>
</g>
<!-- domn4&#45;&gt;domn14 -->
<g id="e13" class="edge">
<title>domn4-&gt;domn14:w</title>
<path fill="none" stroke="black" d="M263.24,-383.06C267.31,-388.86 287.24,-416.62 300.36,-423.47"></path>
<polygon fill="black" stroke="black" points="300.21,-425.25 305.5,-425 301.21,-421.9 300.21,-425.25"></polygon>
</g>
<!-- codomn4 -->
<!-- junction -->
<g id="n4" class="node">
<title>codomn4</title>
<ellipse fill="black" stroke="black" cx="553.5" cy="-197" rx="2" ry="2"></ellipse>
</g>
<!-- domn4&#45;&gt;codomn4 -->
<g id="edge38" class="edge">
<title>domn4-&gt;codomn4</title>
<path fill="none" stroke="blue" d="M262.56,-380.24C263.5,-354.51 274.84,-54.45 298,-24 315.89,-0.48 330.45,0 360,0 360,0 360,0 455,0 481.26,0 492.09,-3.9 509,-24 552.38,-75.56 553.44,-164.43 552.79,-189.96"></path>
<polygon fill="blue" stroke="blue" points="551.04,-189.96 552.61,-195.02 554.53,-190.09 551.04,-189.96"></polygon>
</g>
<!-- domn5 -->
<!-- junction -->
<g id="n5" class="node">
<title>domn5</title>
<ellipse fill="black" stroke="black" cx="361" cy="-430" rx="2" ry="2"></ellipse>
</g>
<!-- domn5&#45;&gt;domn13 -->
<g id="e11" class="edge">
<title>domn5-&gt;domn13:w</title>
<path fill="none" stroke="black" d="M363.14,-430.27C367.13,-431.19 380.91,-434.17 393.9,-434.86"></path>
<polygon fill="black" stroke="black" points="393.95,-436.61 399,-435 394.05,-433.11 393.95,-436.61"></polygon>
</g>
<!-- codomn5 -->
<!-- junction -->
<g id="n5" class="node">
<title>codomn5</title>
<ellipse fill="black" stroke="black" cx="653" cy="-283" rx="2" ry="2"></ellipse>
</g>
<!-- domn5&#45;&gt;codomn5 -->
<g id="edge39" class="edge">
<title>domn5-&gt;codomn5</title>
<path fill="none" stroke="blue" d="M363.18,-428.94C370.66,-422.32 412.46,-387 453,-387 453,-387 453,-387 501.5,-387 571.47,-387 632.47,-309.98 648.12,-288.5"></path>
<polygon fill="blue" stroke="blue" points="649.73,-289.26 651.2,-284.17 646.88,-287.23 649.73,-289.26"></polygon>
</g>
<!-- domn6 -->
<!-- junction -->
<g id="n6" class="node">
<title>domn6</title>
<ellipse fill="black" stroke="black" cx="454" cy="-455" rx="2" ry="2"></ellipse>
</g>
<!-- domn15 -->
<!-- g -->
<g id="n15" class="node">
<title>domn15</title>
<polygon fill="none" stroke="black" points="492.5,-453 492.5,-478 509.5,-478 509.5,-453 492.5,-453"></polygon>
<text text-anchor="start" x="497.5" y="-461.8" font-family="Serif" font-size="14.00">g</text>
</g>
<!-- domn6&#45;&gt;domn15 -->
<g id="e15" class="edge">
<title>domn6-&gt;domn15:w</title>
<path fill="none" stroke="black" d="M456.12,-455.54C460.04,-457.37 473.59,-463.34 486.79,-464.72"></path>
<polygon fill="black" stroke="black" points="486.91,-466.48 492,-465 487.1,-462.98 486.91,-466.48"></polygon>
</g>
<!-- domn6&#45;&gt;codomn3 -->
<g id="edge40" class="edge">
<title>domn6-&gt;codomn3</title>
<path fill="none" stroke="blue" d="M454,-452.92C454,-384.43 454,-315.94 454,-247.45"></path>
<polygon fill="blue" stroke="blue" points="455.75,-247.1 454,-242.1 452.25,-247.1 455.75,-247.1"></polygon>
</g>
<!-- domn7 -->
<!-- junction -->
<g id="n7" class="node">
<title>domn7</title>
<ellipse fill="black" stroke="black" cx="553.5" cy="-461" rx="2" ry="2"></ellipse>
</g>
<!-- domn7&#45;&gt;codomn5 -->
<g id="edge41" class="edge">
<title>domn7-&gt;codomn5</title>
<path fill="none" stroke="blue" d="M555.43,-459.72C561.31,-451.64 593.68,-406.66 615,-367 630.06,-339 644.12,-303.63 649.59,-289.38"></path>
<polygon fill="blue" stroke="blue" points="651.25,-289.94 651.39,-284.65 647.97,-288.7 651.25,-289.94"></polygon>
</g>
<!-- domn8&#45;&gt;domn4 -->
<g id="e2" class="edge">
<title>domn8:e-&gt;domn4</title>
<path fill="none" stroke="black" d="M217,-382C230.22,-382 245.69,-382 254.16,-382"></path>
<polygon fill="black" stroke="black" points="254.42,-383.75 259.42,-382 254.42,-380.25 254.42,-383.75"></polygon>
</g>
<!-- codomn6 -->
<!-- f -->
<g id="n6" class="node">
<title>codomn6</title>
<polygon fill="none" stroke="black" points="493.5,-195 493.5,-220 508.5,-220 508.5,-195 493.5,-195"></polygon>
<text text-anchor="start" x="498.5" y="-203.8" font-family="Serif" font-size="14.00">f</text>
</g>
<!-- domn8&#45;&gt;codomn6 -->
<g id="edge42" class="edge">
<title>domn8-&gt;codomn6</title>
<path fill="none" stroke="red" d="M211.93,-370.2C218.76,-312.1 250.39,-76 313.5,-76 313.5,-76 313.5,-76 408.5,-76 463.42,-76 487.74,-154.4 496,-190.36"></path>
<polygon fill="red" stroke="red" points="494.32,-190.84 497.11,-195.34 497.73,-190.08 494.32,-190.84"></polygon>
</g>
<!-- domn9&#45;&gt;domn4 -->
<g id="e4" class="edge">
<title>domn9:e-&gt;domn4</title>
<path fill="none" stroke="black" d="M323.5,-382C328.63,-382 326.28,-373.97 322.5,-370.5 306.91,-356.21 279.21,-371.15 267.72,-378.46"></path>
<polygon fill="black" stroke="black" points="266.69,-377.05 263.5,-381.28 268.64,-379.96 266.69,-377.05"></polygon>
</g>
<!-- codomn7 -->
<!-- f -->
<g id="n7" class="node">
<title>codomn7</title>
<polygon fill="none" stroke="black" points="599.5,-195 599.5,-220 614.5,-220 614.5,-195 599.5,-195"></polygon>
<text text-anchor="start" x="604.5" y="-203.8" font-family="Serif" font-size="14.00">f</text>
</g>
<!-- domn9&#45;&gt;codomn7 -->
<g id="edge43" class="edge">
<title>domn9-&gt;codomn7</title>
<path fill="none" stroke="red" d="M322.05,-372.38C335.31,-352.35 367.42,-311 406.5,-311 406.5,-311 406.5,-311 501.5,-311 549.54,-311 583.35,-254.82 597.74,-225.44"></path>
<polygon fill="red" stroke="red" points="599.47,-225.9 600.04,-220.63 596.31,-224.39 599.47,-225.9"></polygon>
</g>
<!-- domn10 -->
<!-- 9 -->
<g id="n10" class="node">
<title>domn10</title>
<polygon fill="none" stroke="black" points="16.5,-370 16.5,-395 33.5,-395 33.5,-370 16.5,-370"></polygon>
<text text-anchor="start" x="21.5" y="-378.8" font-family="Serif" font-size="14.00">9</text>
</g>
<!-- domn10&#45;&gt;domn2 -->
<g id="e5" class="edge">
<title>domn10:e-&gt;domn2</title>
<path fill="none" stroke="black" d="M33,-382C43.82,-382 56.42,-382 63.77,-382"></path>
<polygon fill="black" stroke="black" points="63.85,-383.75 68.85,-382 63.85,-380.25 63.85,-383.75"></polygon>
</g>
<!-- codomn8 -->
<!-- 9 -->
<g id="n8" class="node">
<title>codomn8</title>
<polygon fill="none" stroke="black" points="306.5,-256 306.5,-281 323.5,-281 323.5,-256 306.5,-256"></polygon>
<text text-anchor="start" x="311.5" y="-264.8" font-family="Serif" font-size="14.00">9</text>
</g>
<!-- domn10&#45;&gt;codomn8 -->
<g id="edge44" class="edge">
<title>domn10-&gt;codomn8</title>
<path fill="none" stroke="red" d="M29.18,-370.15C38.49,-340.73 65.89,-271 116.5,-271 116.5,-271 116.5,-271 210.5,-271 242.76,-271 280.68,-270.01 300.28,-269.42"></path>
<polygon fill="red" stroke="red" points="300.8,-271.16 305.75,-269.25 300.7,-267.66 300.8,-271.16"></polygon>
</g>
<!-- domn11 -->
<!-- 8 -->
<g id="n11" class="node">
<title>domn11</title>
<polygon fill="none" stroke="black" points="16.5,-413 16.5,-438 33.5,-438 33.5,-413 16.5,-413"></polygon>
<text text-anchor="start" x="21.5" y="-421.8" font-family="Serif" font-size="14.00">8</text>
</g>
<!-- domn11&#45;&gt;domn1 -->
<g id="e6" class="edge">
<title>domn11:e-&gt;domn1</title>
<path fill="none" stroke="black" d="M33,-425C45.89,-425 58.79,-415.76 65.42,-410.17"></path>
<polygon fill="black" stroke="black" points="66.61,-411.46 69.17,-406.82 64.28,-408.85 66.61,-411.46"></polygon>
</g>
<!-- codomn9 -->
<!-- 8 -->
<g id="n9" class="node">
<title>codomn9</title>
<polygon fill="none" stroke="black" points="306.5,-299 306.5,-324 323.5,-324 323.5,-299 306.5,-299"></polygon>
<text text-anchor="start" x="311.5" y="-307.8" font-family="Serif" font-size="14.00">8</text>
</g>
<!-- domn11&#45;&gt;codomn9 -->
<g id="edge45" class="edge">
<title>domn11-&gt;codomn9</title>
<path fill="none" stroke="red" d="M30.12,-413.46C40.82,-386.82 70.04,-327 116.5,-327 116.5,-327 116.5,-327 210.5,-327 243.37,-327 281.53,-319.43 300.87,-315.04"></path>
<polygon fill="red" stroke="red" points="301.33,-316.73 305.8,-313.9 300.54,-313.32 301.33,-316.73"></polygon>
</g>
<!-- domn12&#45;&gt;domn3 -->
<g id="e9" class="edge">
<title>domn12:e-&gt;domn3</title>
<path fill="none" stroke="black" d="M126,-394C136.82,-394 149.42,-394 156.77,-394"></path>
<polygon fill="black" stroke="black" points="156.85,-395.75 161.85,-394 156.85,-392.25 156.85,-395.75"></polygon>
</g>
<!-- codomn10 -->
<!-- h -->
<g id="n10" class="node">
<title>codomn10</title>
<polygon fill="none" stroke="black" points="399.5,-205 399.5,-253 416.5,-253 416.5,-205 399.5,-205"></polygon>
<text text-anchor="start" x="404.5" y="-225.3" font-family="Serif" font-size="14.00">h</text>
</g>
<!-- domn12&#45;&gt;codomn10 -->
<g id="edge46" class="edge">
<title>domn12-&gt;codomn10</title>
<path fill="none" stroke="red" d="M122.17,-369.91C132.19,-308.7 162.33,-152 208.5,-152 208.5,-152 208.5,-152 315.5,-152 351.98,-152 381.36,-188.5 396.13,-211.24"></path>
<polygon fill="red" stroke="red" points="394.73,-212.3 398.88,-215.59 397.69,-210.43 394.73,-212.3"></polygon>
</g>
<!-- domn13&#45;&gt;domn6 -->
<g id="e12" class="edge">
<title>domn13:e-&gt;domn6</title>
<path fill="none" stroke="black" d="M416,-447C427.07,-447 439.59,-450.46 446.86,-452.83"></path>
<polygon fill="black" stroke="black" points="446.57,-454.58 451.87,-454.57 447.72,-451.28 446.57,-454.58"></polygon>
</g>
<!-- codomn11 -->
<!-- h -->
<g id="n11" class="node">
<title>codomn11</title>
<polygon fill="none" stroke="black" points="691.5,-277 691.5,-325 708.5,-325 708.5,-277 691.5,-277"></polygon>
<text text-anchor="start" x="696.5" y="-297.3" font-family="Serif" font-size="14.00">h</text>
</g>
<!-- domn13&#45;&gt;codomn11 -->
<g id="edge47" class="edge">
<title>domn13-&gt;codomn11</title>
<path fill="none" stroke="red" d="M416.21,-445.55C439.33,-441.04 509.81,-426.01 563.5,-401 588.36,-389.42 592.78,-383.07 615,-367 641.28,-347.99 670.77,-324.03 686.72,-310.84"></path>
<polygon fill="red" stroke="red" points="688.11,-311.95 690.84,-307.41 685.88,-309.26 688.11,-311.95"></polygon>
</g>
<!-- domn14&#45;&gt;domn5 -->
<g id="e14" class="edge">
<title>domn14:e-&gt;domn5</title>
<path fill="none" stroke="black" d="M323,-425C333.92,-425 346.49,-427.16 353.81,-428.65"></path>
<polygon fill="black" stroke="black" points="353.6,-430.39 358.86,-429.73 354.34,-426.97 353.6,-430.39"></polygon>
</g>
<!-- codomn12 -->
<!-- g -->
<g id="n12" class="node">
<title>codomn12</title>
<polygon fill="none" stroke="black" points="598.5,-259 598.5,-284 615.5,-284 615.5,-259 598.5,-259"></polygon>
<text text-anchor="start" x="603.5" y="-267.8" font-family="Serif" font-size="14.00">g</text>
</g>
<!-- domn14&#45;&gt;codomn12 -->
<g id="edge48" class="edge">
<title>domn14-&gt;codomn12</title>
<path fill="none" stroke="red" d="M322.69,-413.29C336.1,-391.41 367.18,-349 406.5,-349 406.5,-349 406.5,-349 501.5,-349 531.05,-349 539.71,-342.53 563.5,-325 576.68,-315.29 587.97,-300.42 595.51,-288.91"></path>
<polygon fill="red" stroke="red" points="597.1,-289.67 598.31,-284.52 594.15,-287.79 597.1,-289.67"></polygon>
</g>
<!-- domn15&#45;&gt;domn7 -->
<g id="e16" class="edge">
<title>domn15:e-&gt;domn7</title>
<path fill="none" stroke="black" d="M509,-465C522.27,-465 537.73,-463.13 546.18,-461.95"></path>
<polygon fill="black" stroke="black" points="546.74,-463.63 551.43,-461.17 546.22,-460.17 546.74,-463.63"></polygon>
</g>
<!-- codomn13 -->
<!-- g -->
<g id="n13" class="node">
<title>codomn13</title>
<polygon fill="none" stroke="black" points="545.5,-217 545.5,-242 562.5,-242 562.5,-217 545.5,-217"></polygon>
<text text-anchor="start" x="550.5" y="-225.8" font-family="Serif" font-size="14.00">g</text>
</g>
<!-- domn15&#45;&gt;codomn13 -->
<g id="edge49" class="edge">
<title>domn15-&gt;codomn13</title>
<path fill="none" stroke="red" d="M504.24,-453.31C512.77,-413.85 538.83,-293.24 548.68,-247.68"></path>
<polygon fill="red" stroke="red" points="550.4,-248.01 549.74,-242.75 546.98,-247.27 550.4,-248.01"></polygon>
</g>
<!-- domn16&#45;&gt;domn5 -->
<g id="e18" class="edge">
<title>domn16:e-&gt;domn5</title>
<path fill="none" stroke="black" d="M270,-415C289.23,-415 280.55,-439.92 298,-448 318.09,-457.3 344.1,-441.53 354.92,-433.84"></path>
<polygon fill="black" stroke="black" points="356.13,-435.13 359.09,-430.73 354.04,-432.32 356.13,-435.13"></polygon>
</g>
<!-- domn16&#45;&gt;codomn13 -->
<g id="edge50" class="edge">
<title>domn16-&gt;codomn13</title>
<path fill="none" stroke="red" d="M266.91,-403.43C268.01,-400.07 269.12,-396.42 270,-393 290.37,-314.21 278.62,-38 360,-38 360,-38 360,-38 455,-38 474.48,-38 526.86,-165.25 545.66,-212.56"></path>
<polygon fill="red" stroke="red" points="544.11,-213.4 547.58,-217.4 547.37,-212.11 544.11,-213.4"></polygon>
</g>
<!-- codomn1&#45;&gt;codomn10 -->
<g id="e7" class="edge">
<title>codomn1-&gt;codomn10:w</title>
<path fill="none" stroke="black" d="M363.15,-241C367.17,-241 381.02,-241 393.93,-241"></path>
<polygon fill="black" stroke="black" points="394,-242.75 399,-241 394,-239.25 394,-242.75"></polygon>
</g>
<!-- codomn2&#45;&gt;codomn10 -->
<g id="e8" class="edge">
<title>codomn2-&gt;codomn10:w</title>
<path fill="none" stroke="black" d="M363.15,-217C367.17,-217 381.02,-217 393.93,-217"></path>
<polygon fill="black" stroke="black" points="394,-218.75 399,-217 394,-215.25 394,-218.75"></polygon>
</g>
<!-- codomn3&#45;&gt;codomn6 -->
<g id="e1" class="edge">
<title>codomn3-&gt;codomn6:w</title>
<path fill="none" stroke="black" d="M455.7,-238.58C458.63,-232.86 470.52,-211.57 487.18,-207.63"></path>
<polygon fill="black" stroke="black" points="487.74,-209.33 492.5,-207 487.33,-205.85 487.74,-209.33"></polygon>
</g>
<!-- codomn3&#45;&gt;codomn11 -->
<g id="e10" class="edge">
<title>codomn3-&gt;codomn11:w</title>
<path fill="none" stroke="black" d="M455.86,-240.76C459.77,-244.18 476.4,-258.4 492,-267 536.38,-291.46 548.44,-298.43 598,-309 636.72,-317.26 648.61,-313.37 685.83,-313.02"></path>
<polygon fill="black" stroke="black" points="686.01,-314.77 691,-313 685.99,-311.27 686.01,-314.77"></polygon>
</g>
<!-- codomn3&#45;&gt;codomn13 -->
<g id="e15" class="edge">
<title>codomn3-&gt;codomn13:w</title>
<path fill="none" stroke="black" d="M456.26,-239.73C463.86,-238.11 504.41,-229.83 539.82,-229.06"></path>
<polygon fill="black" stroke="black" points="540.02,-230.81 545,-229 539.98,-227.31 540.02,-230.81"></polygon>
</g>
<!-- codomn4&#45;&gt;codomn7 -->
<g id="e3" class="edge">
<title>codomn4-&gt;codomn7:w</title>
<path fill="none" stroke="black" d="M555.57,-197.43C559.97,-199.16 577.24,-205.61 593.5,-206.81"></path>
<polygon fill="black" stroke="black" points="593.44,-208.56 598.5,-207 593.57,-205.06 593.44,-208.56"></polygon>
</g>
<!-- codomn4&#45;&gt;codomn12 -->
<g id="e13" class="edge">
<title>codomn4-&gt;codomn12:w</title>
<path fill="none" stroke="black" d="M555.4,-198.09C557.08,-200.15 560.78,-204.81 563.5,-209 579.66,-233.9 568.02,-266.87 592.91,-270.64"></path>
<polygon fill="black" stroke="black" points="592.89,-272.4 598,-271 593.13,-268.9 592.89,-272.4"></polygon>
</g>
<!-- codomn5&#45;&gt;codomn11 -->
<g id="e11" class="edge">
<title>codomn5-&gt;codomn11:w</title>
<path fill="none" stroke="black" d="M655.14,-283.32C659.12,-284.42 672.86,-288.01 685.88,-288.83"></path>
<polygon fill="black" stroke="black" points="685.94,-290.58 691,-289 686.06,-287.08 685.94,-290.58"></polygon>
</g>
<!-- codomn6&#45;&gt;codomn4 -->
<g id="e2" class="edge">
<title>codomn6:e-&gt;codomn4</title>
<path fill="none" stroke="black" d="M509,-207C522.83,-207 538.52,-202.14 546.76,-199.19"></path>
<polygon fill="black" stroke="black" points="547.38,-200.83 551.44,-197.43 546.15,-197.55 547.38,-200.83"></polygon>
</g>
<!-- codomn7&#45;&gt;codomn4 -->
<g id="e4" class="edge">
<title>codomn7:e-&gt;codomn4</title>
<path fill="none" stroke="black" d="M615.5,-207C620.63,-207 618.28,-198.97 614.5,-195.5 599.47,-181.72 572.34,-189.89 560.41,-194.5"></path>
<polygon fill="black" stroke="black" points="559.46,-193 555.51,-196.53 560.8,-196.23 559.46,-193"></polygon>
</g>
<!-- codomn8&#45;&gt;codomn2 -->
<g id="e5" class="edge">
<title>codomn8:e-&gt;codomn2</title>
<path fill="none" stroke="black" d="M323,-268C344.63,-268 354.92,-237.58 358.48,-223.73"></path>
<polygon fill="black" stroke="black" points="360.22,-223.96 359.66,-218.7 356.82,-223.16 360.22,-223.96"></polygon>
</g>
<!-- codomn9&#45;&gt;codomn1 -->
<g id="e6" class="edge">
<title>codomn9:e-&gt;codomn1</title>
<path fill="none" stroke="black" d="M323,-311C351.4,-311 358.06,-265.4 359.57,-247.81"></path>
<polygon fill="black" stroke="black" points="361.32,-247.84 359.93,-242.73 357.83,-247.6 361.32,-247.84"></polygon>
</g>
<!-- codomn10&#45;&gt;codomn3 -->
<g id="e9" class="edge">
<title>codomn10:e-&gt;codomn3</title>
<path fill="none" stroke="black" d="M416,-229C427.52,-229 440.25,-233.96 447.37,-237.22"></path>
<polygon fill="black" stroke="black" points="446.62,-238.8 451.89,-239.41 448.15,-235.65 446.62,-238.8"></polygon>
</g>
<!-- codomn11&#45;&gt;codomn3 -->
<g id="e12" class="edge">
<title>codomn11:e-&gt;codomn3</title>
<path fill="none" stroke="black" d="M709.5,-301C720.18,-301 716.2,-317.61 708.5,-325 702.89,-330.38 698.61,-326.61 691,-325 673.87,-321.37 671.52,-314.8 655,-309 630.28,-300.32 622.95,-301.97 598,-294 543.95,-276.73 480.42,-250.64 460.96,-242.51"></path>
<polygon fill="black" stroke="black" points="461.42,-240.8 456.13,-240.48 460.06,-244.03 461.42,-240.8"></polygon>
</g>
<!-- codomn12&#45;&gt;codomn5 -->
<g id="e14" class="edge">
<title>codomn12:e-&gt;codomn5</title>
<path fill="none" stroke="black" d="M615,-271C626.61,-271 639.31,-276.41 646.4,-279.96"></path>
<polygon fill="black" stroke="black" points="645.66,-281.55 650.89,-282.35 647.3,-278.46 645.66,-281.55"></polygon>
</g>
<!-- codomn13&#45;&gt;codomn5 -->
<g id="e16" class="edge">
<title>codomn13:e-&gt;codomn5</title>
<path fill="none" stroke="black" d="M563.5,-229C600.69,-229 635.5,-264.18 647.54,-277.75"></path>
<polygon fill="black" stroke="black" points="646.33,-279.02 650.91,-281.67 648.98,-276.73 646.33,-279.02"></polygon>
</g>
</g>
</svg>